# Blender 5.1.2
# www.blender.org
mtllib IncomingWarhead.mtl
o 弾道ミサイル弾頭
v 0.000000 0.500000 -1.000000
v 0.097545 0.490393 -1.000000
v 0.191342 0.461940 -1.000000
v 0.277785 0.415735 -1.000000
v 0.353553 0.353553 -1.000000
v 0.415735 0.277785 -1.000000
v 0.461940 0.191342 -1.000000
v 0.490393 0.097545 -1.000000
v 0.500000 0.000000 -1.000000
v 0.490393 -0.097545 -1.000000
v 0.461940 -0.191342 -1.000000
v 0.415735 -0.277785 -1.000000
v 0.353553 -0.353553 -1.000000
v 0.277785 -0.415735 -1.000000
v 0.191342 -0.461940 -1.000000
v 0.097545 -0.490393 -1.000000
v 0.000000 -0.500000 -1.000000
v -0.097545 -0.490393 -1.000000
v -0.191342 -0.461940 -1.000000
v -0.277785 -0.415735 -1.000000
v -0.353553 -0.353553 -1.000000
v -0.415735 -0.277785 -1.000000
v -0.461940 -0.191342 -1.000000
v -0.490393 -0.097545 -1.000000
v -0.500000 0.000000 -1.000000
v -0.490393 0.097545 -1.000000
v -0.461940 0.191342 -1.000000
v -0.415735 0.277785 -1.000000
v -0.353553 0.353553 -1.000000
v -0.277785 0.415735 -1.000000
v -0.191342 0.461940 -1.000000
v -0.097545 0.490393 -1.000000
v 0.000000 0.000000 1.000000
v 0.000000 0.500000 -1.000000
v 0.097545 0.490393 -1.000000
v 0.191342 0.461940 -1.000000
v 0.277785 0.415735 -1.000000
v 0.353553 0.353553 -1.000000
v 0.415735 0.277785 -1.000000
v 0.461940 0.191342 -1.000000
v 0.490393 0.097545 -1.000000
v 0.500000 0.000000 -1.000000
v 0.490393 -0.097545 -1.000000
v 0.461940 -0.191342 -1.000000
v 0.415735 -0.277785 -1.000000
v 0.353553 -0.353553 -1.000000
v 0.277785 -0.415735 -1.000000
v 0.191342 -0.461940 -1.000000
v 0.097545 -0.490393 -1.000000
v 0.000000 -0.500000 -1.000000
v -0.097545 -0.490393 -1.000000
v -0.191342 -0.461940 -1.000000
v -0.277785 -0.415735 -1.000000
v -0.353553 -0.353553 -1.000000
v -0.415735 -0.277785 -1.000000
v -0.461940 -0.191342 -1.000000
v -0.490393 -0.097545 -1.000000
v -0.500000 0.000000 -1.000000
v -0.490393 0.097545 -1.000000
v -0.461940 0.191342 -1.000000
v -0.415735 0.277785 -1.000000
v -0.353553 0.353553 -1.000000
v -0.277785 0.415735 -1.000000
v -0.191342 0.461940 -1.000000
v -0.097545 0.490393 -1.000000
v -0.000000 0.500000 -1.065555
v 0.097545 0.490393 -1.065555
v 0.191342 0.461940 -1.065555
v 0.277785 0.415735 -1.065555
v 0.353553 0.353553 -1.065555
v 0.415735 0.277785 -1.065555
v 0.461940 0.191342 -1.065555
v 0.490393 0.097545 -1.065555
v 0.500000 0.000000 -1.065555
v 0.490393 -0.097545 -1.065555
v 0.461940 -0.191342 -1.065555
v 0.415735 -0.277785 -1.065555
v 0.353553 -0.353553 -1.065555
v 0.277785 -0.415735 -1.065555
v 0.191342 -0.461940 -1.065555
v 0.097545 -0.490393 -1.065555
v -0.000000 -0.500000 -1.065555
v -0.097545 -0.490393 -1.065555
v -0.191342 -0.461940 -1.065555
v -0.277785 -0.415735 -1.065555
v -0.353553 -0.353553 -1.065555
v -0.415735 -0.277785 -1.065555
v -0.461940 -0.191342 -1.065555
v -0.490393 -0.097545 -1.065555
v -0.500000 0.000000 -1.065555
v -0.490393 0.097545 -1.065555
v -0.461940 0.191342 -1.065555
v -0.415735 0.277785 -1.065555
v -0.353553 0.353553 -1.065555
v -0.277785 0.415735 -1.065555
v -0.191342 0.461940 -1.065555
v -0.097545 0.490393 -1.065555
v -0.000000 0.489154 -1.117217
v 0.093581 0.479755 -1.117217
v 0.183565 0.451919 -1.117217
v 0.266495 0.406717 -1.117217
v 0.339184 0.345884 -1.117217
v 0.398839 0.271759 -1.117217
v 0.443166 0.187191 -1.117217
v 0.470462 0.095429 -1.117217
v 0.479679 0.000000 -1.117217
v 0.470462 -0.095429 -1.117217
v 0.443166 -0.187191 -1.117217
v 0.398839 -0.271759 -1.117217
v 0.339184 -0.345884 -1.117217
v 0.266495 -0.406717 -1.117217
v 0.183565 -0.451919 -1.117217
v 0.093581 -0.479755 -1.117217
v -0.000000 -0.489154 -1.117217
v -0.093581 -0.479755 -1.117217
v -0.183565 -0.451919 -1.117217
v -0.266495 -0.406717 -1.117217
v -0.339184 -0.345884 -1.117217
v -0.398839 -0.271759 -1.117217
v -0.443166 -0.187191 -1.117217
v -0.470462 -0.095429 -1.117217
v -0.479679 0.000000 -1.117217
v -0.470462 0.095429 -1.117217
v -0.443166 0.187191 -1.117217
v -0.398839 0.271759 -1.117217
v -0.339184 0.345884 -1.117217
v -0.266495 0.406717 -1.117217
v -0.183565 0.451919 -1.117217
v -0.093581 0.479755 -1.117217
v -0.201296 0.000000 0.194816
v 0.167604 0.111989 0.193699
v -0.077069 -0.186060 0.194440
v -0.039295 0.197548 0.194326
v 0.142522 -0.142522 0.193775
v -0.197431 0.039271 0.194805
v 0.186244 0.077145 0.193642
v -0.111872 -0.167428 0.194546
v 0.111966 -0.167569 0.193867
v -0.185984 0.077037 0.194770
v 0.000000 0.201448 0.194206
v 0.197725 0.039330 0.193607
v -0.142369 -0.142369 0.194638
v 0.039306 0.197607 0.194087
v 0.077113 -0.186168 0.193973
v -0.167393 0.111848 0.194714
v 0.201601 0.000000 0.193596
v -0.167393 -0.111848 0.194714
v 0.077113 0.186168 0.193973
v 0.039306 -0.197607 0.194087
v -0.142369 0.142369 0.194638
v 0.197725 -0.039330 0.193607
v -0.185984 -0.077037 0.194770
v 0.111966 0.167569 0.193867
v 0.000000 -0.201448 0.194206
v -0.111872 0.167428 0.194546
v 0.186244 -0.077145 0.193642
v -0.197431 -0.039271 0.194805
v 0.142522 0.142522 0.193775
v -0.039295 -0.197548 0.194325
v -0.077069 0.186060 0.194440
v 0.167604 -0.111989 0.193699
vn 0.0951 0.9657 0.2414
vn 0.2817 0.9286 0.2414
vn 0.4575 0.8558 0.2414
vn 0.6156 0.7501 0.2414
vn 0.7501 0.6156 0.2414
vn 0.8558 0.4575 0.2414
vn 0.9286 0.2817 0.2414
vn 0.9657 0.0951 0.2414
vn 0.9657 -0.0951 0.2414
vn 0.9286 -0.2817 0.2414
vn 0.8558 -0.4575 0.2414
vn 0.7501 -0.6156 0.2414
vn 0.6156 -0.7501 0.2414
vn 0.4575 -0.8558 0.2414
vn 0.2817 -0.9286 0.2414
vn 0.0951 -0.9657 0.2414
vn -0.0951 -0.9657 0.2414
vn -0.2817 -0.9286 0.2414
vn -0.4575 -0.8558 0.2414
vn -0.6156 -0.7501 0.2414
vn -0.7501 -0.6156 0.2414
vn -0.8558 -0.4575 0.2414
vn -0.9286 -0.2817 0.2414
vn -0.9657 -0.0951 0.2414
vn -0.9657 0.0951 0.2414
vn -0.9286 0.2817 0.2414
vn -0.8558 0.4575 0.2414
vn -0.7501 0.6156 0.2414
vn -0.6156 0.7501 0.2414
vn -0.4575 0.8558 0.2414
vn 0.4714 -0.8819 -0.0000
vn -0.2817 0.9286 0.2414
vn -0.0951 0.9657 0.2414
vn -0.0000 -0.0000 1.0000
vn -0.7442 -0.5989 -0.2959
vn -0.7730 -0.6344 -0.0000
vn -0.7730 0.6344 -0.0000
vn 0.9952 0.0980 -0.0000
vn 0.2903 -0.9569 -0.0000
vn -0.8819 -0.4714 -0.0000
vn 0.2903 0.9569 -0.0000
vn -0.6344 0.7730 -0.0000
vn 0.9952 -0.0980 -0.0000
vn 0.0980 -0.9952 -0.0000
vn -0.9569 -0.2903 -0.0000
vn 0.4714 0.8819 -0.0000
vn -0.4714 0.8819 -0.0000
vn 0.9569 -0.2903 -0.0000
vn -0.0980 -0.9952 -0.0000
vn -0.9952 -0.0980 -0.0000
vn 0.6344 0.7730 -0.0000
vn -0.2903 0.9569 -0.0000
vn 0.8819 -0.4714 -0.0000
vn -0.2903 -0.9569 -0.0000
vn -0.9952 0.0980 -0.0000
vn 0.7730 0.6344 -0.0000
vn -0.0980 0.9952 -0.0000
vn 0.7730 -0.6344 -0.0000
vn -0.4714 -0.8819 -0.0000
vn -0.9569 0.2903 -0.0000
vn 0.8819 0.4714 -0.0000
vn 0.6344 -0.7730 -0.0000
vn -0.6344 -0.7730 -0.0000
vn -0.8819 0.4714 -0.0000
vn 0.9569 0.2903 -0.0000
vn 0.0980 0.9952 -0.0000
vn -0.0000 -0.0000 -1.0000
vn 0.9280 0.0896 -0.3617
vn -0.8376 -0.4390 -0.3251
vn 0.9267 -0.0913 -0.3645
vn -0.8986 -0.2673 -0.3480
vn 0.8942 -0.2713 -0.3561
vn -0.9280 -0.0896 -0.3617
vn 0.8302 -0.4438 -0.3374
vn -0.9267 0.0913 -0.3645
vn 0.7348 -0.6030 -0.3106
vn -0.8942 0.2713 -0.3561
vn 0.6091 -0.7422 -0.2796
vn -0.8302 0.4438 -0.3374
vn 0.4566 -0.8542 -0.2489
vn 0.0978 0.9740 -0.2045
vn -0.7348 0.6030 -0.3106
vn 0.2829 -0.9327 -0.2235
vn 0.2887 0.9331 -0.2143
vn -0.6091 0.7422 -0.2796
vn 0.0959 -0.9735 -0.2078
vn 0.4651 0.8533 -0.2355
vn -0.4566 0.8542 -0.2489
vn -0.0978 -0.9740 -0.2045
vn 0.6190 0.7396 -0.2644
vn -0.2829 0.9327 -0.2235
vn -0.2887 -0.9331 -0.2143
vn 0.7442 0.5989 -0.2959
vn -0.0959 0.9735 -0.2078
vn -0.4651 -0.8533 -0.2355
vn 0.8376 0.4390 -0.3251
vn -0.6190 -0.7396 -0.2644
vn 0.8986 0.2673 -0.3480
vn -0.7348 -0.6030 -0.3106
vn 0.9267 0.0913 -0.3645
vn -0.8302 -0.4438 -0.3374
vn 0.9280 -0.0896 -0.3617
vn -0.8942 -0.2713 -0.3561
vn 0.8986 -0.2673 -0.3480
vn -0.9267 -0.0913 -0.3645
vn 0.8376 -0.4390 -0.3251
vn -0.9280 0.0896 -0.3617
vn 0.7442 -0.5989 -0.2959
vn -0.8986 0.2673 -0.3480
vn 0.6190 -0.7396 -0.2644
vn -0.8376 0.4390 -0.3251
vn 0.4651 -0.8533 -0.2355
vn 0.0959 0.9735 -0.2078
vn -0.7442 0.5989 -0.2959
vn 0.2887 -0.9331 -0.2143
vn 0.2829 0.9327 -0.2235
vn -0.6190 0.7396 -0.2644
vn 0.0978 -0.9740 -0.2045
vn 0.4566 0.8542 -0.2489
vn -0.4651 0.8533 -0.2355
vn -0.0959 -0.9735 -0.2078
vn 0.6091 0.7422 -0.2796
vn -0.2887 0.9331 -0.2143
vn -0.2829 -0.9327 -0.2235
vn 0.7348 0.6030 -0.3106
vn -0.0978 0.9740 -0.2045
vn -0.4566 -0.8542 -0.2489
vn 0.8302 0.4438 -0.3374
vn -0.6091 -0.7422 -0.2796
vn 0.8942 0.2713 -0.3561
s 0
usemtl Material
f 1//1 143//1 2//1
f 2//2 148//2 3//2
f 3//3 153//3 4//3
f 4//4 158//4 5//4
f 5//5 131//5 6//5
f 6//6 136//6 7//6
f 7//7 141//7 8//7
f 8//8 146//8 9//8
f 146//9 10//9 9//9
f 151//10 11//10 10//10
f 156//11 12//11 11//11
f 161//12 13//12 12//12
f 134//13 14//13 13//13
f 138//14 15//14 14//14
f 144//15 16//15 15//15
f 149//16 17//16 16//16
f 154//17 18//17 17//17
f 159//18 19//18 18//18
f 132//19 20//19 19//19
f 137//20 21//20 20//20
f 142//21 22//21 21//21
f 147//22 23//22 22//22
f 152//23 24//23 23//23
f 157//24 25//24 24//24
f 25//25 135//25 26//25
f 26//26 139//26 27//26
f 27//27 145//27 28//27
f 28//28 150//28 29//28
f 29//29 155//29 30//29
f 30//30 160//30 31//30
f 15//31 79//31 14//31
f 31//32 133//32 32//32
f 32//33 140//33 1//33
f 31//34 65//34 64//34
f 12//34 44//34 45//34
f 19//34 51//34 52//34
f 26//34 58//34 59//34
f 6//34 38//34 39//34
f 32//34 34//34 65//34
f 13//34 45//34 46//34
f 20//34 52//34 53//34
f 27//34 59//34 60//34
f 7//34 39//34 40//34
f 14//34 46//34 47//34
f 21//34 53//34 54//34
f 28//34 60//34 61//34
f 8//34 40//34 41//34
f 2//34 34//34 35//34
f 15//34 47//34 48//34
f 22//34 54//34 55//34
f 29//34 61//34 62//34
f 9//34 41//34 42//34
f 16//34 48//34 49//34
f 23//34 55//34 56//34
f 3//34 35//34 36//34
f 30//34 62//34 63//34
f 10//34 42//34 43//34
f 17//34 49//34 50//34
f 24//34 56//34 57//34
f 4//34 36//34 37//34
f 31//34 63//34 64//34
f 11//34 43//34 44//34
f 18//34 50//34 51//34
f 25//34 57//34 58//34
f 5//34 37//34 38//34
f 86//35 119//35 118//35
f 22//36 86//36 21//36
f 29//37 93//37 28//37
f 9//38 73//38 8//38
f 16//39 80//39 15//39
f 23//40 87//40 22//40
f 3//41 67//41 2//41
f 30//42 94//42 29//42
f 10//43 74//43 9//43
f 17//44 81//44 16//44
f 24//45 88//45 23//45
f 4//46 68//46 3//46
f 31//47 95//47 30//47
f 11//48 75//48 10//48
f 18//49 82//49 17//49
f 25//50 89//50 24//50
f 5//51 69//51 4//51
f 32//52 96//52 31//52
f 12//53 76//53 11//53
f 19//54 83//54 18//54
f 26//55 90//55 25//55
f 6//56 70//56 5//56
f 1//57 97//57 32//57
f 13//58 77//58 12//58
f 20//59 84//59 19//59
f 27//60 91//60 26//60
f 7//61 71//61 6//61
f 14//62 78//62 13//62
f 21//63 85//63 20//63
f 28//64 92//64 27//64
f 8//65 72//65 7//65
f 2//66 66//66 1//66
f 113//67 121//67 129//67
f 73//68 106//68 105//68
f 87//69 120//69 119//69
f 75//70 106//70 74//70
f 88//71 121//71 120//71
f 76//72 107//72 75//72
f 89//73 122//73 121//73
f 77//74 108//74 76//74
f 91//75 122//75 90//75
f 78//76 109//76 77//76
f 92//77 123//77 91//77
f 79//78 110//78 78//78
f 93//79 124//79 92//79
f 80//80 111//80 79//80
f 66//81 99//81 98//81
f 94//82 125//82 93//82
f 81//83 112//83 80//83
f 67//84 100//84 99//84
f 95//85 126//85 94//85
f 82//86 113//86 81//86
f 68//87 101//87 100//87
f 96//88 127//88 95//88
f 82//89 115//89 114//89
f 69//90 102//90 101//90
f 97//91 128//91 96//91
f 83//92 116//92 115//92
f 70//93 103//93 102//93
f 66//94 129//94 97//94
f 84//95 117//95 116//95
f 71//96 104//96 103//96
f 85//97 118//97 117//97
f 72//98 105//98 104//98
f 1//1 140//1 143//1
f 2//2 143//2 148//2
f 3//3 148//3 153//3
f 4//4 153//4 158//4
f 5//5 158//5 131//5
f 6//6 131//6 136//6
f 7//7 136//7 141//7
f 8//8 141//8 146//8
f 146//9 151//9 10//9
f 151//10 156//10 11//10
f 156//11 161//11 12//11
f 161//12 134//12 13//12
f 134//13 138//13 14//13
f 138//14 144//14 15//14
f 144//15 149//15 16//15
f 149//16 154//16 17//16
f 154//17 159//17 18//17
f 159//18 132//18 19//18
f 132//19 137//19 20//19
f 137//20 142//20 21//20
f 142//21 147//21 22//21
f 147//22 152//22 23//22
f 152//23 157//23 24//23
f 157//24 130//24 25//24
f 25//25 130//25 135//25
f 26//26 135//26 139//26
f 27//27 139//27 145//27
f 28//28 145//28 150//28
f 29//29 150//29 155//29
f 30//30 155//30 160//30
f 15//31 80//31 79//31
f 31//32 160//32 133//32
f 32//33 133//33 140//33
f 31//34 32//34 65//34
f 12//34 11//34 44//34
f 19//34 18//34 51//34
f 26//34 25//34 58//34
f 6//34 5//34 38//34
f 32//34 1//34 34//34
f 13//34 12//34 45//34
f 20//34 19//34 52//34
f 27//34 26//34 59//34
f 7//34 6//34 39//34
f 14//34 13//34 46//34
f 21//34 20//34 53//34
f 28//34 27//34 60//34
f 8//34 7//34 40//34
f 2//34 1//34 34//34
f 15//34 14//34 47//34
f 22//34 21//34 54//34
f 29//34 28//34 61//34
f 9//34 8//34 41//34
f 16//34 15//34 48//34
f 23//34 22//34 55//34
f 3//34 2//34 35//34
f 30//34 29//34 62//34
f 10//34 9//34 42//34
f 17//34 16//34 49//34
f 24//34 23//34 56//34
f 4//34 3//34 36//34
f 31//34 30//34 63//34
f 11//34 10//34 43//34
f 18//34 17//34 50//34
f 25//34 24//34 57//34
f 5//34 4//34 37//34
f 86//99 87//99 119//99
f 22//36 87//36 86//36
f 29//37 94//37 93//37
f 9//38 74//38 73//38
f 16//39 81//39 80//39
f 23//40 88//40 87//40
f 3//41 68//41 67//41
f 30//42 95//42 94//42
f 10//43 75//43 74//43
f 17//44 82//44 81//44
f 24//45 89//45 88//45
f 4//46 69//46 68//46
f 31//47 96//47 95//47
f 11//48 76//48 75//48
f 18//49 83//49 82//49
f 25//50 90//50 89//50
f 5//51 70//51 69//51
f 32//52 97//52 96//52
f 12//53 77//53 76//53
f 19//54 84//54 83//54
f 26//55 91//55 90//55
f 6//56 71//56 70//56
f 1//57 66//57 97//57
f 13//58 78//58 77//58
f 20//59 85//59 84//59
f 27//60 92//60 91//60
f 7//61 72//61 71//61
f 14//62 79//62 78//62
f 21//63 86//63 85//63
f 28//64 93//64 92//64
f 8//65 73//65 72//65
f 2//66 67//66 66//66
f 129//67 98//67 99//67
f 99//67 100//67 101//67
f 101//67 102//67 103//67
f 103//67 104//67 105//67
f 105//67 106//67 107//67
f 107//67 108//67 109//67
f 109//67 110//67 111//67
f 111//67 112//67 113//67
f 113//67 114//67 115//67
f 115//67 116//67 117//67
f 117//67 118//67 119//67
f 119//67 120//67 121//67
f 121//67 122//67 123//67
f 123//67 124//67 125//67
f 125//67 126//67 127//67
f 127//67 128//67 129//67
f 129//67 99//67 101//67
f 101//67 103//67 105//67
f 105//67 107//67 109//67
f 109//67 111//67 113//67
f 113//67 115//67 117//67
f 117//67 119//67 121//67
f 121//67 123//67 125//67
f 125//67 127//67 129//67
f 129//67 101//67 105//67
f 105//67 109//67 113//67
f 113//67 117//67 121//67
f 121//67 125//67 129//67
f 129//67 105//67 113//67
f 73//100 74//100 106//100
f 87//101 88//101 120//101
f 75//102 107//102 106//102
f 88//103 89//103 121//103
f 76//104 108//104 107//104
f 89//105 90//105 122//105
f 77//106 109//106 108//106
f 91//107 123//107 122//107
f 78//108 110//108 109//108
f 92//109 124//109 123//109
f 79//110 111//110 110//110
f 93//111 125//111 124//111
f 80//112 112//112 111//112
f 66//113 67//113 99//113
f 94//114 126//114 125//114
f 81//115 113//115 112//115
f 67//116 68//116 100//116
f 95//117 127//117 126//117
f 82//118 114//118 113//118
f 68//119 69//119 101//119
f 96//120 128//120 127//120
f 82//121 83//121 115//121
f 69//122 70//122 102//122
f 97//123 129//123 128//123
f 83//124 84//124 116//124
f 70//125 71//125 103//125
f 66//126 98//126 129//126
f 84//127 85//127 117//127
f 71//128 72//128 104//128
f 85//129 86//129 118//129
f 72//130 73//130 105//130
usemtl Material.001
f 138//13 134//13 33//13
f 133//32 160//32 33//32
f 144//14 138//14 33//14
f 140//33 133//33 33//33
f 149//15 144//15 33//15
f 154//16 149//16 33//16
f 159//17 154//17 33//17
f 132//18 159//18 33//18
f 137//19 132//19 33//19
f 143//1 140//1 33//1
f 142//20 137//20 33//20
f 148//2 143//2 33//2
f 147//21 142//21 33//21
f 153//3 148//3 33//3
f 152//22 147//22 33//22
f 158//4 153//4 33//4
f 157//23 152//23 33//23
f 131//5 158//5 33//5
f 130//24 157//24 33//24
f 136//6 131//6 33//6
f 135//25 130//25 33//25
f 141//7 136//7 33//7
f 139//26 135//26 33//26
f 146//8 141//8 33//8
f 145//27 139//27 33//27
f 151//9 146//9 33//9
f 150//28 145//28 33//28
f 156//10 151//10 33//10
f 155//29 150//29 33//29
f 161//11 156//11 33//11
f 160//30 155//30 33//30
f 134//12 161//12 33//12
