# Blender 5.1.2
# www.blender.org
mtllib Interceptor_ARROW.mtl
o ARROW
v 0.000000 0.450569 -3.000000
v 0.000000 0.315809 3.152584
v 0.086800 0.441912 -3.000000
v 0.060407 0.309741 3.152584
v 0.170264 0.416272 -3.000000
v 0.118493 0.291769 3.152584
v 0.247185 0.374635 -3.000000
v 0.172025 0.262586 3.152584
v 0.314607 0.318601 -3.000000
v 0.218946 0.223311 3.152584
v 0.369939 0.250323 -3.000000
v 0.257453 0.175454 3.152584
v 0.411054 0.172425 -3.000000
v 0.286067 0.120855 3.152584
v 0.436373 0.087902 -3.000000
v 0.303687 0.061611 3.152584
v 0.444922 0.000000 -3.000000
v 0.309636 -0.000000 3.152584
v 0.436373 -0.087902 -3.000000
v 0.303687 -0.061611 3.152584
v 0.411054 -0.172425 -3.000000
v 0.286067 -0.120855 3.152584
v 0.369939 -0.250323 -3.000000
v 0.257453 -0.175454 3.152584
v 0.314607 -0.318601 -3.000000
v 0.218946 -0.223311 3.152584
v 0.247185 -0.374635 -3.000000
v 0.172025 -0.262586 3.152584
v 0.170264 -0.416272 -3.000000
v 0.118493 -0.291769 3.152584
v 0.086800 -0.441912 -3.000000
v 0.060407 -0.309741 3.152584
v 0.000000 -0.450569 -3.000000
v 0.000000 -0.315809 3.152584
v -0.086800 -0.441912 -3.000000
v -0.060407 -0.309741 3.152584
v -0.170264 -0.416272 -3.000000
v -0.118493 -0.291769 3.152584
v -0.247185 -0.374635 -3.000000
v -0.172025 -0.262586 3.152584
v -0.314607 -0.318601 -3.000000
v -0.218946 -0.223311 3.152584
v -0.369939 -0.250323 -3.000000
v -0.257453 -0.175454 3.152584
v -0.411054 -0.172425 -3.000000
v -0.286067 -0.120855 3.152584
v -0.436373 -0.087902 -3.000000
v -0.303687 -0.061611 3.152584
v -0.444922 0.000000 -3.000000
v -0.309636 -0.000000 3.152584
v -0.436373 0.087902 -3.000000
v -0.303687 0.061611 3.152584
v -0.411054 0.172425 -3.000000
v -0.286067 0.120855 3.152584
v -0.369939 0.250323 -3.000000
v -0.257453 0.175454 3.152584
v -0.314607 0.318601 -3.000000
v -0.218946 0.223311 3.152584
v -0.247185 0.374635 -3.000000
v -0.172025 0.262586 3.152584
v -0.170264 0.416272 -3.000000
v -0.118493 0.291769 3.152584
v -0.086800 0.441912 -3.000000
v -0.060407 0.309741 3.152584
v 0.030204 0.312775 3.152584
v 0.089450 0.300755 3.152584
v 0.145259 0.277178 3.152584
v 0.195485 0.242948 3.152584
v 0.238200 0.199382 3.152584
v 0.271760 0.148154 3.152584
v 0.294877 0.091233 3.152584
v 0.306661 0.030806 3.152584
v 0.306661 -0.030806 3.152584
v 0.294877 -0.091233 3.152584
v 0.271760 -0.148154 3.152584
v 0.238200 -0.199382 3.152584
v 0.195485 -0.242948 3.152584
v 0.145259 -0.277178 3.152584
v 0.089450 -0.300755 3.152584
v 0.030204 -0.312775 3.152584
v -0.030203 -0.312775 3.152584
v -0.089450 -0.300755 3.152584
v -0.145259 -0.277178 3.152584
v -0.195485 -0.242948 3.152584
v -0.238199 -0.199382 3.152584
v -0.271760 -0.148154 3.152584
v -0.294877 -0.091233 3.152584
v -0.306661 -0.030806 3.152584
v -0.306661 0.030806 3.152584
v -0.294877 0.091233 3.152584
v -0.271760 0.148154 3.152584
v -0.238199 0.199382 3.152584
v -0.195485 0.242948 3.152584
v -0.145259 0.277178 3.152584
v -0.089450 0.300755 3.152584
v -0.030203 0.312775 3.152584
v 0.000000 -0.000000 4.147758
v 0.060249 0.310087 1.801062
v -0.060249 0.310087 1.801062
v 0.118183 -0.292095 1.801062
v -0.256780 0.175650 1.801062
v 0.285319 -0.120990 1.801062
v -0.302893 -0.061680 1.801062
v 0.285319 0.120990 1.801062
v -0.171575 -0.262879 1.801062
v 0.118183 0.292095 1.801062
v 0.060249 -0.310087 1.801062
v -0.218374 0.223560 1.801062
v 0.256780 -0.175650 1.801062
v -0.308827 -0.000000 1.801062
v 0.302893 0.061680 1.801062
v -0.218374 -0.223560 1.801062
v 0.171575 0.262879 1.801062
v 0.000000 0.316162 1.801062
v 0.000000 -0.316162 1.801062
v -0.171575 0.262879 1.801062
v 0.218374 -0.223560 1.801062
v -0.302893 0.061680 1.801062
v 0.308827 -0.000000 1.801062
v -0.256780 -0.175650 1.801062
v 0.218374 0.223560 1.801062
v -0.060249 -0.310087 1.801062
v -0.118183 0.292095 1.801062
v 0.171575 -0.262879 1.801062
v -0.285319 0.120990 1.801062
v 0.302893 -0.061680 1.801062
v -0.285319 -0.120990 1.801062
v 0.256780 0.175650 1.801062
v -0.118183 -0.292095 1.801062
v 0.078036 0.392314 0.699002
v 0.000000 0.400000 0.699003
v -0.078036 0.392314 0.699002
v 0.153073 -0.369552 0.699002
v -0.332588 0.222228 0.699002
v 0.369552 -0.153073 0.699002
v -0.392314 -0.078036 0.699002
v 0.369552 0.153073 0.699002
v -0.222228 -0.332588 0.699002
v 0.153073 0.369552 0.699002
v 0.078036 -0.392314 0.699002
v -0.282843 0.282843 0.699002
v 0.332588 -0.222228 0.699002
v -0.400000 0.000000 0.699002
v 0.392314 0.078036 0.699002
v -0.282843 -0.282843 0.699002
v 0.222228 0.332588 0.699002
v 0.000000 -0.400000 0.699002
v -0.222228 0.332588 0.699002
v 0.282843 -0.282843 0.699002
v -0.392314 0.078036 0.699002
v 0.400000 0.000000 0.699002
v -0.332588 -0.222228 0.699002
v 0.282843 0.282843 0.699002
v -0.078036 -0.392314 0.699002
v -0.153073 0.369552 0.699002
v 0.222228 -0.332588 0.699002
v -0.369552 0.153073 0.699002
v 0.392314 -0.078036 0.699002
v -0.369552 -0.153073 0.699002
v 0.332588 0.222228 0.699002
v -0.153073 -0.369552 0.699002
v 0.078036 0.392314 -2.817317
v -0.078036 0.392314 -2.817317
v 0.153073 -0.369552 -2.817317
v -0.332588 0.222228 -2.817317
v 0.369552 -0.153073 -2.817317
v -0.392314 -0.078036 -2.817317
v 0.369552 0.153073 -2.817317
v -0.222228 -0.332588 -2.817317
v 0.153073 0.369552 -2.817317
v 0.078036 -0.392314 -2.817317
v -0.282843 0.282843 -2.817317
v 0.332588 -0.222228 -2.817317
v -0.400000 0.000000 -2.817317
v 0.392314 0.078036 -2.817317
v -0.282843 -0.282843 -2.817317
v 0.222228 0.332588 -2.817317
v 0.000000 -0.400000 -2.817317
v -0.222228 0.332588 -2.817317
v 0.282843 -0.282843 -2.817317
v -0.392314 0.078036 -2.817317
v 0.400000 0.000000 -2.817317
v -0.332588 -0.222228 -2.817317
v 0.282843 0.282843 -2.817317
v -0.078036 -0.392314 -2.817317
v -0.153073 0.369552 -2.817317
v 0.222228 -0.332588 -2.817317
v 0.000000 0.400000 -2.817317
v -0.369552 0.153073 -2.817317
v 0.392314 -0.078036 -2.817317
v -0.369552 -0.153073 -2.817317
v 0.332588 0.222228 -2.817317
v -0.153073 -0.369552 -2.817317
v 0.000000 0.430344 1.250033
v 0.144879 0.277487 1.801062
v -0.271050 -0.148320 1.801062
v 0.194974 0.243219 1.801062
v -0.294106 -0.091335 1.801062
v 0.237577 0.199605 1.801062
v -0.305860 -0.030840 1.801062
v 0.271050 0.148320 1.801062
v -0.305860 0.030840 1.801062
v 0.294106 0.091335 1.801062
v -0.294106 0.091335 1.801062
v 0.305860 0.030840 1.801062
v -0.271050 0.148320 1.801062
v 0.305860 -0.030840 1.801062
v -0.237577 0.199605 1.801062
v 0.294106 -0.091335 1.801062
v -0.194974 0.243219 1.801062
v 0.271050 -0.148320 1.801062
v -0.144879 0.277487 1.801062
v 0.237577 -0.199605 1.801062
v -0.089216 0.301091 1.801062
v 0.194974 -0.243219 1.801062
v -0.030125 0.313124 1.801062
v 0.144879 -0.277487 1.801062
v 0.089216 -0.301091 1.801062
v 0.030125 -0.313124 1.801062
v -0.030125 -0.313124 1.801062
v -0.089216 -0.301091 1.801062
v -0.144879 -0.277487 1.801062
v 0.030125 0.313124 1.801062
v -0.194974 -0.243219 1.801062
v 0.089216 0.301091 1.801062
v -0.237577 -0.199605 1.801062
v 0.069143 0.351200 1.250032
v -0.069143 0.351200 1.250032
v 0.135628 -0.330823 1.250032
v -0.294684 0.198939 1.250032
v 0.327435 -0.137032 1.250032
v -0.347604 -0.069858 1.250032
v 0.327435 0.137032 1.250032
v -0.196902 -0.297733 1.250032
v 0.135628 0.330823 1.250032
v 0.069143 -0.351200 1.250032
v -0.250608 0.253201 1.250032
v 0.294684 -0.198939 1.250032
v -0.433470 -0.000000 1.250032
v 0.347604 0.069858 1.250032
v -0.250608 -0.253201 1.250032
v 0.196902 0.297733 1.250032
v 0.000000 -0.433363 1.250032
v -0.196902 0.297733 1.250032
v 0.250608 -0.253201 1.250032
v -0.347604 0.069858 1.250032
v 0.435632 -0.000000 1.250032
v -0.294684 -0.198939 1.250032
v 0.250608 0.253201 1.250032
v -0.069143 -0.351200 1.250032
v -0.135628 0.330823 1.250032
v 0.196902 -0.297733 1.250032
v -0.327435 0.137032 1.250032
v 0.347604 -0.069858 1.250032
v -0.327435 -0.137032 1.250032
v 0.294684 0.198939 1.250032
v -0.135628 -0.330823 1.250032
v 0.187651 0.351070 0.699002
v -0.351070 -0.187651 0.699002
v 0.252535 0.307715 0.699002
v -0.380933 -0.115555 0.699002
v 0.307715 0.252535 0.699002
v -0.396157 -0.039018 0.699002
v 0.351070 0.187651 0.699002
v -0.396157 0.039018 0.699002
v 0.380933 0.115555 0.699002
v -0.380933 0.115555 0.699002
v 0.396157 0.039018 0.699002
v -0.351070 0.187651 0.699002
v 0.396157 -0.039018 0.699002
v -0.307715 0.252535 0.699002
v 0.380933 -0.115555 0.699002
v -0.252535 0.307715 0.699002
v 0.351070 -0.187651 0.699002
v -0.187651 0.351070 0.699002
v 0.307715 -0.252535 0.699002
v -0.115555 0.380933 0.699002
v 0.252535 -0.307715 0.699002
v -0.039018 0.396157 0.699003
v 0.187651 -0.351070 0.699002
v 0.115555 -0.380933 0.699002
v 0.039018 -0.396157 0.699002
v -0.039018 -0.396157 0.699002
v -0.115555 -0.380933 0.699002
v -0.187651 -0.351070 0.699002
v 0.039018 0.396157 0.699003
v -0.252535 -0.307715 0.699002
v 0.115555 0.380933 0.699002
v -0.307715 -0.252535 0.699002
v -0.272646 -0.226070 1.250032
v 0.102385 0.341012 1.250032
v -0.223755 -0.275467 1.250032
v 0.034571 0.354641 1.250032
v -0.166265 -0.314278 1.250032
v -0.102385 -0.341012 1.250032
v -0.034571 -0.354641 1.250032
v 0.034571 -0.354641 1.250032
v 0.102385 -0.341012 1.250032
v 0.166265 -0.314278 1.250032
v -0.034571 0.354641 1.250032
v 0.223755 -0.275467 1.250032
v -0.102385 0.341012 1.250032
v 0.272646 -0.226070 1.250032
v -0.166265 0.314278 1.250032
v 0.311060 -0.167985 1.250032
v -0.223755 0.275467 1.250032
v 0.337520 -0.103445 1.250032
v -0.272646 0.226070 1.250032
v 0.351009 -0.034929 1.250032
v -0.311060 0.167985 1.250032
v 0.351009 0.034929 1.250032
v -0.337520 0.103445 1.250032
v 0.337520 0.103445 1.250032
v -0.351009 0.034929 1.250032
v 0.311060 0.167985 1.250032
v -0.351009 -0.034929 1.250032
v 0.272646 0.226070 1.250032
v -0.337520 -0.103445 1.250032
v 0.223755 0.275467 1.250032
v -0.311060 -0.167985 1.250032
v 0.166265 0.314278 1.250032
v 0.000000 0.352215 1.525547
v 0.158227 0.270183 1.801062
v -0.263915 -0.161985 1.801062
v 0.206674 0.233390 1.801062
v -0.289713 -0.106162 1.801062
v 0.247179 0.187627 1.801062
v -0.304377 -0.046260 1.801062
v 0.278184 0.134655 1.801062
v -0.304377 0.046260 1.801062
v 0.298500 0.076507 1.801062
v -0.289713 0.106162 1.801062
v 0.307344 0.015420 1.801062
v -0.263915 0.161985 1.801062
v 0.307344 -0.015420 1.801062
v -0.227975 0.211582 1.801062
v 0.298500 -0.076507 1.801062
v -0.183275 0.253049 1.801062
v 0.278184 -0.134655 1.801062
v -0.131531 0.284791 1.801062
v 0.247179 -0.187627 1.801062
v -0.074733 0.305589 1.801062
v 0.206674 -0.233390 1.801062
v -0.015062 0.314643 1.801062
v 0.158227 -0.270183 1.801062
v 0.103700 -0.296593 1.801062
v 0.045187 -0.311605 1.801062
v -0.015062 -0.314643 1.801062
v -0.074733 -0.305589 1.801062
v -0.131531 -0.284791 1.801062
v 0.045187 0.311605 1.801062
v -0.183275 -0.253049 1.801062
v 0.103700 0.296593 1.801062
v -0.227975 -0.211582 1.801062
v 0.073589 0.371757 0.974517
v -0.073589 0.371757 0.974517
v 0.144351 -0.350188 0.974517
v -0.313636 0.210584 0.974517
v 0.348494 -0.145052 0.974517
v -0.369959 -0.073947 0.974517
v 0.348494 0.145052 0.974517
v -0.209565 -0.315161 0.974517
v 0.144351 0.350188 0.974517
v 0.073589 -0.371757 0.974517
v -0.266725 0.268022 0.974517
v 0.313636 -0.210584 0.974517
v -0.409282 -0.000000 0.974517
v 0.369959 0.073947 0.974517
v -0.266725 -0.268022 0.974517
v 0.209565 0.315161 0.974517
v 0.000000 -0.401682 0.974517
v -0.209565 0.315161 0.974517
v 0.266725 -0.268022 0.974517
v -0.369959 0.073947 0.974517
v 0.409558 -0.000000 0.974517
v -0.313636 -0.210584 0.974517
v 0.266725 0.268022 0.974517
v -0.073589 -0.371757 0.974517
v -0.144351 0.350188 0.974517
v 0.209565 -0.315161 0.974517
v -0.348494 0.145052 0.974517
v 0.369959 -0.073947 0.974517
v -0.348494 -0.145052 0.974517
v 0.313636 0.210584 0.974517
v -0.144351 -0.350188 0.974517
v 0.204939 0.341829 0.699002
v -0.341829 -0.204939 0.699002
v 0.267689 0.295279 0.699002
v -0.375242 -0.134314 0.699002
v 0.320152 0.237382 0.699002
v -0.394236 -0.058527 0.699002
v 0.360311 0.170362 0.699002
v -0.394236 0.058527 0.699002
v 0.386624 0.096795 0.699002
v -0.375242 0.134314 0.699002
v 0.398079 0.019509 0.699002
v -0.341829 0.204939 0.699002
v 0.398079 -0.019509 0.699002
v -0.295279 0.267689 0.699002
v 0.386624 -0.096795 0.699002
v -0.237382 0.320152 0.699002
v 0.360311 -0.170362 0.699002
v -0.170362 0.360311 0.699002
v 0.320152 -0.237382 0.699002
v -0.096795 0.386624 0.699002
v 0.267689 -0.295279 0.699002
v -0.019509 0.398079 0.699003
v 0.204939 -0.341829 0.699002
v 0.134314 -0.375242 0.699002
v 0.058527 -0.394236 0.699002
v -0.019509 -0.398079 0.699002
v -0.096795 -0.386624 0.699002
v -0.170362 -0.360311 0.699002
v 0.058527 0.394236 0.699003
v -0.237382 -0.320152 0.699002
v 0.134314 0.375242 0.699002
v -0.295279 -0.267689 0.699002
v 0.000000 0.406210 0.974518
v 0.131531 0.284791 1.801062
v -0.278184 -0.134655 1.801062
v 0.183275 0.253049 1.801062
v -0.298500 -0.076507 1.801062
v 0.227975 0.211582 1.801062
v -0.307344 -0.015420 1.801062
v 0.263915 0.161985 1.801062
v -0.307344 0.015420 1.801062
v 0.289713 0.106162 1.801062
v -0.298500 0.076507 1.801062
v 0.304377 0.046260 1.801062
v -0.278184 0.134655 1.801062
v 0.304377 -0.046260 1.801062
v -0.247179 0.187627 1.801062
v 0.289713 -0.106162 1.801062
v -0.206674 0.233390 1.801062
v 0.263915 -0.161985 1.801062
v -0.158227 0.270183 1.801062
v 0.227975 -0.211582 1.801062
v -0.103700 0.296593 1.801062
v 0.183275 -0.253049 1.801062
v -0.045187 0.311605 1.801062
v 0.131531 -0.284791 1.801062
v 0.074733 -0.305589 1.801062
v 0.015062 -0.314643 1.801062
v -0.045187 -0.311605 1.801062
v -0.103700 -0.296593 1.801062
v -0.158227 -0.270183 1.801062
v 0.015062 0.314643 1.801062
v -0.206674 -0.233390 1.801062
v 0.074733 0.305589 1.801062
v -0.247179 -0.187627 1.801062
v 0.064696 0.330643 1.525547
v -0.064696 0.330643 1.525547
v 0.126906 -0.311459 1.525547
v -0.275732 0.187294 1.525547
v 0.306377 -0.129011 1.525547
v -0.325248 -0.065769 1.525547
v 0.306377 0.129011 1.525547
v -0.184238 -0.280306 1.525547
v 0.126906 0.311459 1.525547
v 0.064696 -0.330643 1.525547
v -0.234491 0.238381 1.525547
v 0.275732 -0.187294 1.525547
v -0.348601 -0.000000 1.525547
v 0.325248 0.065769 1.525547
v -0.234491 -0.238381 1.525547
v 0.184238 0.280306 1.525547
v 0.000000 -0.359762 1.525547
v -0.184238 0.280306 1.525547
v 0.234491 -0.238381 1.525547
v -0.325248 0.065769 1.525547
v 0.350488 -0.000000 1.525547
v -0.275732 -0.187294 1.525547
v 0.234491 0.238381 1.525547
v -0.064696 -0.330643 1.525547
v -0.126906 0.311459 1.525547
v 0.184238 -0.280306 1.525547
v -0.306377 0.129011 1.525547
v 0.325248 -0.065769 1.525547
v -0.306377 -0.129011 1.525547
v 0.275732 0.187294 1.525547
v -0.126906 -0.311459 1.525547
v 0.170362 0.360311 0.699002
v -0.360311 -0.170362 0.699002
v 0.237382 0.320152 0.699002
v -0.386624 -0.096795 0.699002
v 0.295279 0.267689 0.699002
v -0.398079 -0.019509 0.699002
v 0.341829 0.204939 0.699002
v -0.398079 0.019509 0.699002
v 0.375242 0.134314 0.699002
v -0.386624 0.096795 0.699002
v 0.394236 0.058527 0.699002
v -0.360311 0.170362 0.699002
v 0.394236 -0.058527 0.699002
v -0.320152 0.237382 0.699002
v 0.375242 -0.134314 0.699002
v -0.267689 0.295279 0.699002
v 0.341829 -0.204939 0.699002
v -0.204939 0.341829 0.699002
v 0.295279 -0.267689 0.699002
v -0.134314 0.375242 0.699002
v 0.237382 -0.320152 0.699002
v -0.058527 0.394236 0.699003
v 0.170362 -0.360311 0.699002
v 0.096795 -0.386624 0.699002
v 0.019509 -0.398079 0.699002
v -0.058527 -0.394236 0.699002
v -0.134314 -0.375242 0.699002
v -0.204939 -0.341829 0.699002
v 0.019509 0.398079 0.699003
v -0.267689 -0.295279 0.699002
v 0.096795 0.386624 0.699002
v -0.320152 -0.237382 0.699002
v -0.255112 -0.212838 1.525547
v -0.290181 -0.239303 0.974517
v -0.283665 -0.212505 1.250032
v -0.261627 -0.239636 1.250032
v 0.095801 0.321051 1.525547
v 0.108970 0.360972 0.974517
v 0.119007 0.335918 1.250032
v 0.085764 0.346106 1.250032
v -0.209365 -0.259343 1.525547
v -0.238145 -0.291591 0.974517
v -0.237182 -0.264334 1.250032
v -0.210328 -0.286600 1.250032
v 0.032348 0.333882 1.525547
v 0.036795 0.375399 0.974518
v 0.051857 0.352920 1.250032
v 0.017286 0.356361 1.250032
v -0.155572 -0.295883 1.525547
v -0.176958 -0.332674 0.974517
v -0.181583 -0.306006 1.250032
v -0.150947 -0.322551 1.250032
v -0.095801 -0.321051 1.525547
v -0.108970 -0.360972 0.974517
v -0.119007 -0.335918 1.250032
v -0.085764 -0.346106 1.250032
v -0.032348 -0.333882 1.525547
v -0.036795 -0.375399 0.974517
v -0.051857 -0.352920 1.250032
v -0.017286 -0.356361 1.250032
v 0.032348 -0.333882 1.525547
v 0.036795 -0.375399 0.974517
v 0.017286 -0.356361 1.250032
v 0.051857 -0.352920 1.250032
v 0.095801 -0.321051 1.525547
v 0.108970 -0.360972 0.974517
v 0.085764 -0.346106 1.250032
v 0.119007 -0.335918 1.250032
v 0.155572 -0.295883 1.525547
v 0.176958 -0.332674 0.974517
v 0.150947 -0.322551 1.250032
v 0.181583 -0.306006 1.250032
v -0.032348 0.333882 1.525547
v -0.036795 0.375399 0.974518
v -0.017286 0.356361 1.250032
v -0.051857 0.352920 1.250032
v 0.209365 -0.259343 1.525547
v 0.238145 -0.291591 0.974517
v 0.210328 -0.286600 1.250032
v 0.237182 -0.264334 1.250032
v -0.095801 0.321051 1.525547
v -0.108970 0.360972 0.974517
v -0.085764 0.346106 1.250032
v -0.119007 0.335918 1.250032
v 0.255112 -0.212838 1.525547
v 0.290181 -0.239303 0.974517
v 0.261627 -0.239636 1.250032
v 0.283665 -0.212505 1.250032
v -0.155572 0.295883 1.525547
v -0.176958 0.332674 0.974517
v -0.150947 0.322551 1.250032
v -0.181583 0.306006 1.250032
v 0.291055 -0.158153 1.525547
v 0.331065 -0.177818 0.974517
v 0.302872 -0.183462 1.250032
v 0.319248 -0.152508 1.250032
v -0.209365 0.259343 1.525547
v -0.238145 0.291591 0.974517
v -0.210328 0.286600 1.250032
v -0.237182 0.264334 1.250032
v 0.315813 -0.097390 1.525547
v 0.359226 -0.109500 0.974517
v 0.332477 -0.120238 1.250032
v 0.342562 -0.086651 1.250032
v -0.255112 0.212838 1.525547
v -0.290181 0.239303 0.974517
v -0.261627 0.239636 1.250032
v -0.283665 0.212505 1.250032
v 0.328434 -0.032885 1.525547
v 0.373583 -0.036974 0.974517
v 0.349306 -0.052394 1.250032
v 0.352711 -0.017465 1.250032
v -0.291055 0.158153 1.525547
v -0.331065 0.177818 0.974517
v -0.302872 0.183462 1.250032
v -0.319248 0.152508 1.250032
v 0.328434 0.032885 1.525547
v 0.373583 0.036974 0.974517
v 0.352711 0.017465 1.250032
v 0.349306 0.052394 1.250032
v -0.315813 0.097390 1.525547
v -0.359226 0.109500 0.974517
v -0.332477 0.120238 1.250032
v -0.342562 0.086651 1.250032
v 0.315813 0.097390 1.525547
v 0.359226 0.109500 0.974517
v 0.342562 0.086651 1.250032
v 0.332477 0.120238 1.250032
v -0.328434 0.032885 1.525547
v -0.373583 0.036974 0.974517
v -0.349306 0.052394 1.250032
v -0.352711 0.017465 1.250032
v 0.291055 0.158153 1.525547
v 0.331065 0.177818 0.974517
v 0.319248 0.152508 1.250032
v 0.302872 0.183462 1.250032
v -0.328434 -0.032885 1.525547
v -0.373583 -0.036974 0.974517
v -0.352711 -0.017465 1.250032
v -0.349306 -0.052394 1.250032
v 0.255112 0.212838 1.525547
v 0.290181 0.239303 0.974517
v 0.283665 0.212505 1.250032
v 0.261627 0.239636 1.250032
v -0.315813 -0.097390 1.525547
v -0.359226 -0.109500 0.974517
v -0.342562 -0.086651 1.250032
v -0.332477 -0.120238 1.250032
v 0.209365 0.259343 1.525547
v 0.238145 0.291591 0.974517
v 0.237182 0.264334 1.250032
v 0.210328 0.286600 1.250032
v -0.291055 -0.158153 1.525547
v -0.331065 -0.177818 0.974517
v -0.319248 -0.152508 1.250032
v -0.302872 -0.183462 1.250032
v 0.155572 0.295883 1.525547
v 0.176958 0.332674 0.974517
v 0.181583 0.306006 1.250032
v 0.150947 0.322551 1.250032
v 0.160654 0.341431 0.974517
v 0.193261 0.323917 0.974517
v 0.169905 0.288094 1.525547
v -0.322350 -0.194201 0.974517
v -0.339779 -0.161435 0.974517
v -0.298716 -0.143582 1.525547
v 0.223855 0.303376 0.974517
v 0.252435 0.279807 0.974517
v 0.221928 0.248862 1.525547
v -0.353860 -0.127276 0.974517
v -0.364593 -0.091723 0.974517
v -0.320531 -0.081579 1.525547
v 0.278453 0.253662 0.974517
v 0.301908 0.224943 0.974517
v 0.265422 0.200066 1.525547
v -0.371771 -0.055460 0.974517
v -0.375395 -0.018487 0.974517
v -0.330027 -0.016442 1.525547
v 0.322350 0.194201 0.974517
v 0.339779 0.161435 0.974517
v 0.298716 0.143582 1.525547
v -0.375395 0.018487 0.974517
v -0.371771 0.055460 0.974517
v -0.326841 0.049327 1.525547
v 0.353860 0.127276 0.974517
v 0.364593 0.091723 0.974517
v 0.320531 0.081579 1.525547
v -0.364593 0.091723 0.974517
v -0.353860 0.127276 0.974517
v -0.311095 0.113200 1.525547
v 0.371771 0.055460 0.974517
v 0.375395 0.018487 0.974517
v 0.330027 0.016442 1.525547
v -0.339779 0.161435 0.974517
v -0.322350 0.194201 0.974517
v -0.283394 0.172724 1.525547
v 0.375395 -0.018487 0.974517
v 0.371771 -0.055460 0.974517
v 0.326841 -0.049327 1.525547
v -0.301908 0.224943 0.974517
v -0.278453 0.253662 0.974517
v -0.244801 0.225609 1.525547
v 0.364593 -0.091723 0.974517
v 0.353860 -0.127276 0.974517
v 0.311095 -0.113200 1.525547
v -0.252435 0.279807 0.974517
v -0.223855 0.303376 0.974517
v -0.196802 0.269825 1.525547
v 0.339779 -0.161435 0.974517
v 0.322350 -0.194201 0.974517
v 0.283394 -0.172724 1.525547
v -0.193261 0.323917 0.974517
v -0.160654 0.341431 0.974517
v -0.141239 0.303671 1.525547
v 0.301908 -0.224943 0.974517
v 0.278453 -0.253662 0.974517
v 0.244801 -0.225609 1.525547
v -0.126660 0.355580 0.974517
v -0.091280 0.366365 0.974517
v -0.080248 0.325847 1.525547
v 0.252435 -0.279807 0.974517
v 0.223855 -0.303376 0.974517
v 0.196802 -0.269825 1.525547
v -0.055192 0.373578 0.974517
v -0.018397 0.377220 0.974518
v -0.016174 0.335502 1.525547
v 0.193261 -0.323917 0.974517
v 0.160654 -0.341431 0.974517
v 0.141239 -0.303671 1.525547
v 0.126660 -0.355580 0.974517
v 0.091280 -0.366365 0.974517
v 0.080248 -0.325847 1.525547
v 0.055192 -0.373578 0.974517
v 0.018397 -0.377220 0.974517
v 0.016174 -0.335502 1.525547
v -0.018397 -0.377220 0.974517
v -0.055192 -0.373578 0.974517
v -0.048522 -0.332263 1.525547
v -0.091280 -0.366365 0.974517
v -0.126660 -0.355580 0.974517
v -0.111353 -0.316255 1.525547
v -0.160654 -0.341431 0.974517
v -0.193261 -0.323917 0.974517
v -0.169905 -0.288094 1.525547
v 0.018397 0.377220 0.974518
v 0.055192 0.373578 0.974517
v 0.048522 0.332263 1.525547
v -0.223855 -0.303376 0.974517
v -0.252435 -0.279807 0.974517
v -0.221928 -0.248862 1.525547
v 0.091280 0.366365 0.974517
v 0.126660 0.355580 0.974517
v 0.111353 0.316255 1.525547
v -0.278453 -0.253662 0.974517
v -0.301908 -0.224943 0.974517
v -0.265422 -0.200066 1.525547
v -0.244801 -0.225609 1.525547
v 0.080248 0.325847 1.525547
v -0.196802 -0.269825 1.525547
v 0.016174 0.335502 1.525547
v -0.141239 -0.303671 1.525547
v -0.080248 -0.325847 1.525547
v -0.016174 -0.335502 1.525547
v 0.048522 -0.332263 1.525547
v 0.111353 -0.316255 1.525547
v 0.169905 -0.288094 1.525547
v -0.048522 0.332263 1.525547
v 0.221928 -0.248862 1.525547
v -0.111353 0.316255 1.525547
v 0.265422 -0.200066 1.525547
v -0.169905 0.288094 1.525547
v 0.298716 -0.143582 1.525547
v -0.221928 0.248862 1.525547
v 0.320531 -0.081579 1.525547
v -0.265422 0.200066 1.525547
v 0.330027 -0.016442 1.525547
v -0.298716 0.143582 1.525547
v 0.326841 0.049327 1.525547
v -0.320531 0.081579 1.525547
v 0.311095 0.113200 1.525547
v -0.330027 0.016442 1.525547
v 0.283394 0.172724 1.525547
v -0.326841 -0.049327 1.525547
v 0.244801 0.225609 1.525547
v -0.311095 -0.113200 1.525547
v 0.196802 0.269825 1.525547
v -0.283394 -0.172724 1.525547
v 0.141239 0.303671 1.525547
vn 0.0957 0.9593 0.2656
vn 0.2832 0.9220 0.2639
vn 0.4596 0.8491 0.2604
vn 0.6179 0.7435 0.2556
vn 0.7522 0.6096 0.2501
vn 0.8574 0.4526 0.2449
vn 0.9298 0.2785 0.2407
vn 0.9667 0.0940 0.2382
vn 0.9667 -0.0940 0.2382
vn 0.9298 -0.2785 0.2407
vn 0.8574 -0.4526 0.2449
vn 0.7522 -0.6096 0.2501
vn 0.6179 -0.7435 0.2556
vn 0.4596 -0.8491 0.2604
vn 0.2832 -0.9220 0.2639
vn 0.0957 -0.9593 0.2656
vn -0.0957 -0.9593 0.2656
vn -0.2832 -0.9220 0.2639
vn -0.4596 -0.8491 0.2604
vn -0.6179 -0.7435 0.2556
vn -0.7522 -0.6096 0.2501
vn -0.8574 -0.4526 0.2449
vn -0.9298 -0.2785 0.2407
vn -0.9667 -0.0940 0.2382
vn -0.9667 0.0940 0.2382
vn -0.9298 0.2785 0.2407
vn -0.8574 0.4526 0.2449
vn -0.7522 0.6096 0.2501
vn -0.6179 0.7435 0.2556
vn -0.4596 0.8491 0.2604
vn -0.2832 0.9220 0.2639
vn -0.0957 0.9593 0.2656
vn -0.0000 -0.0000 -1.0000
vn 0.0953 0.9488 0.3011
vn -0.0953 0.9488 0.3011
vn -0.2819 0.9111 0.3007
vn -0.4566 0.8376 0.2999
vn -0.6125 0.7318 0.2990
vn -0.7437 0.5984 0.2979
vn -0.8458 0.4432 0.2970
vn -0.9155 0.2723 0.2962
vn -0.9508 0.0918 0.2958
vn -0.9508 -0.0918 0.2958
vn -0.9155 -0.2723 0.2962
vn -0.8458 -0.4432 0.2970
vn -0.7437 -0.5984 0.2979
vn -0.6125 -0.7318 0.2990
vn -0.4566 -0.8376 0.2999
vn -0.2819 -0.9111 0.3007
vn -0.0953 -0.9488 0.3011
vn 0.0953 -0.9488 0.3011
vn 0.2819 -0.9111 0.3007
vn 0.4566 -0.8376 0.2999
vn 0.6125 -0.7318 0.2990
vn 0.7437 -0.5984 0.2979
vn 0.8458 -0.4432 0.2970
vn 0.9155 -0.2723 0.2962
vn 0.9508 -0.0918 0.2958
vn 0.9508 0.0918 0.2958
vn 0.9155 0.2723 0.2962
vn 0.8458 0.4432 0.2970
vn 0.7437 0.5984 0.2979
vn 0.6125 0.7318 0.2990
vn 0.4566 0.8376 0.2999
vn 0.2819 0.9111 0.3007
vn 0.4800 0.8772 0.0001
vn -0.8864 -0.4628 -0.0004
vn 0.6433 0.7656 -0.0001
vn -0.9588 -0.2841 -0.0005
vn 0.7802 0.6255 -0.0003
vn -0.9954 -0.0958 -0.0006
vn 0.8864 0.4628 -0.0004
vn -0.9954 0.0958 -0.0006
vn 0.9588 0.2841 -0.0005
vn -0.9588 0.2841 -0.0005
vn 0.9954 0.0958 -0.0006
vn -0.8864 0.4628 -0.0004
vn 0.9954 -0.0958 -0.0006
vn -0.7802 0.6255 -0.0003
vn 0.9588 -0.2841 -0.0005
vn -0.6433 0.7656 -0.0001
vn 0.8864 -0.4628 -0.0004
vn -0.4800 0.8772 0.0001
vn 0.7802 -0.6255 -0.0003
vn -0.2966 0.9550 0.0002
vn 0.6433 -0.7656 -0.0001
vn -0.1003 0.9950 0.0003
vn 0.4800 -0.8772 0.0001
vn 0.2966 -0.9550 0.0002
vn 0.1003 -0.9950 0.0003
vn -0.1003 -0.9950 0.0003
vn -0.2966 -0.9550 0.0002
vn -0.4800 -0.8772 0.0001
vn 0.1003 0.9950 0.0003
vn -0.6433 -0.7656 -0.0001
vn 0.2966 0.9550 0.0002
vn -0.7802 -0.6255 -0.0003
vn 0.4786 0.8747 0.0768
vn -0.8836 -0.4613 0.0804
vn 0.6413 0.7633 0.0780
vn -0.9556 -0.2832 0.0814
vn 0.7778 0.6235 0.0792
vn -0.9921 -0.0954 0.0820
vn 0.8836 0.4613 0.0804
vn -0.9920 0.0954 0.0820
vn 0.9556 0.2832 0.0814
vn -0.9556 0.2831 0.0816
vn 0.9921 0.0954 0.0820
vn -0.8836 0.4613 0.0808
vn 0.9920 -0.0954 0.0820
vn -0.7778 0.6235 0.0796
vn 0.9556 -0.2831 0.0816
vn -0.6413 0.7633 0.0784
vn 0.8836 -0.4613 0.0808
vn -0.4786 0.8746 0.0771
vn 0.7778 -0.6235 0.0796
vn -0.2957 0.9522 0.0762
vn 0.6413 -0.7633 0.0784
vn -0.1000 0.9921 0.0756
vn 0.4786 -0.8746 0.0771
vn 0.2957 -0.9522 0.0762
vn 0.1000 -0.9921 0.0756
vn -0.1000 -0.9921 0.0755
vn -0.2957 -0.9523 0.0759
vn -0.4786 -0.8747 0.0768
vn 0.1000 0.9921 0.0755
vn -0.6413 -0.7633 0.0780
vn 0.2957 0.9523 0.0759
vn -0.7778 -0.6235 0.0792
vn 0.4714 0.8819 -0.0000
vn -0.8819 -0.4714 -0.0000
vn 0.6344 0.7730 -0.0000
vn -0.9569 -0.2903 -0.0000
vn 0.7730 0.6344 -0.0000
vn -0.9952 -0.0980 -0.0000
vn 0.8819 0.4714 -0.0000
vn -0.9952 0.0980 -0.0000
vn 0.9569 0.2903 -0.0000
vn -0.9569 0.2903 -0.0000
vn 0.9952 0.0980 -0.0000
vn -0.8819 0.4714 -0.0000
vn 0.9952 -0.0980 -0.0000
vn -0.7730 0.6344 -0.0000
vn 0.9569 -0.2903 -0.0000
vn -0.6344 0.7730 -0.0000
vn 0.8819 -0.4714 -0.0000
vn -0.4714 0.8819 -0.0000
vn 0.7730 -0.6344 -0.0000
vn -0.2903 0.9569 -0.0000
vn 0.6344 -0.7730 -0.0000
vn -0.0980 0.9952 -0.0000
vn 0.4714 -0.8819 -0.0000
vn 0.2903 -0.9569 -0.0000
vn 0.0980 -0.9952 -0.0000
vn -0.0980 -0.9952 -0.0000
vn -0.2903 -0.9569 -0.0000
vn -0.4714 -0.8819 -0.0000
vn 0.0980 0.9952 -0.0000
vn -0.6344 -0.7730 -0.0000
vn 0.2903 0.9569 -0.0000
vn -0.7730 -0.6344 -0.0000
vn -0.7756 -0.6262 0.0796
vn -0.7721 -0.6306 0.0796
vn -0.7738 -0.6285 0.0793
vn 0.2938 0.9528 0.0762
vn 0.2907 0.9538 0.0761
vn 0.2922 0.9533 0.0759
vn -0.6386 -0.7655 0.0783
vn -0.6343 -0.7691 0.0783
vn -0.6363 -0.7675 0.0780
vn 0.0993 0.9922 0.0756
vn 0.0982 0.9923 0.0756
vn 0.8435 0.5353 0.0439
vn -0.4760 -0.8760 0.0771
vn -0.4718 -0.8783 0.0771
vn -0.4738 -0.8773 0.0768
vn -0.2938 -0.9528 0.0762
vn -0.2907 -0.9538 0.0761
vn -0.2922 -0.9533 0.0759
vn -0.0993 -0.9922 0.0756
vn -0.0982 -0.9923 0.0756
vn -0.7983 -0.6004 0.0487
vn 0.0993 -0.9922 0.0755
vn 0.0982 -0.9923 0.0755
vn 0.0987 -0.9922 0.0756
vn 0.2938 -0.9528 0.0759
vn 0.2907 -0.9538 0.0760
vn 0.2922 -0.9533 0.0762
vn 0.4786 -0.8747 0.0768
vn 0.4738 -0.8773 0.0768
vn 0.4738 -0.8773 0.0771
vn -0.0993 0.9922 0.0755
vn -0.0982 0.9923 0.0755
vn -0.0987 0.9922 0.0756
vn 0.6413 -0.7633 0.0780
vn 0.6363 -0.7675 0.0780
vn 0.6363 -0.7674 0.0783
vn -0.2938 0.9528 0.0759
vn -0.2907 0.9538 0.0760
vn -0.2922 0.9533 0.0762
vn 0.7778 -0.6235 0.0792
vn 0.7738 -0.6285 0.0793
vn 0.7737 -0.6285 0.0796
vn -0.4786 0.8747 0.0768
vn -0.4738 0.8773 0.0768
vn -0.4738 0.8773 0.0771
vn 0.8836 -0.4613 0.0804
vn 0.8811 -0.4661 0.0805
vn 0.8810 -0.4661 0.0808
vn -0.6413 0.7633 0.0780
vn -0.6363 0.7675 0.0780
vn -0.6363 0.7674 0.0783
vn 0.9551 -0.2850 0.0814
vn 0.9542 -0.2880 0.0814
vn 0.9546 -0.2866 0.0816
vn -0.7778 0.6235 0.0792
vn -0.7738 0.6285 0.0793
vn -0.7737 0.6285 0.0796
vn 0.9920 -0.0961 0.0820
vn 0.9919 -0.0972 0.0820
vn 0.4755 -0.8787 0.0424
vn -0.8836 0.4613 0.0804
vn -0.8811 0.4661 0.0805
vn -0.8810 0.4661 0.0808
vn 0.9920 0.0961 0.0820
vn 0.9919 0.0972 0.0820
vn 0.9919 0.0967 0.0820
vn -0.9551 0.2850 0.0814
vn -0.9542 0.2880 0.0814
vn -0.9546 0.2866 0.0816
vn 0.9551 0.2850 0.0816
vn 0.9541 0.2880 0.0816
vn 0.9546 0.2866 0.0814
vn -0.9920 0.0961 0.0820
vn -0.9919 0.0972 0.0820
vn -0.4785 0.8771 0.0426
vn 0.8822 0.4639 0.0808
vn 0.8800 0.4681 0.0807
vn 0.8811 0.4661 0.0805
vn -0.9920 -0.0961 0.0820
vn -0.9919 -0.0972 0.0820
vn -0.9919 -0.0967 0.0820
vn 0.7756 0.6262 0.0796
vn 0.7721 0.6306 0.0796
vn 0.7738 0.6285 0.0793
vn -0.9551 -0.2850 0.0816
vn -0.9541 -0.2880 0.0816
vn -0.9546 -0.2866 0.0814
vn 0.6386 0.7655 0.0783
vn 0.6343 0.7691 0.0783
vn 0.6363 0.7675 0.0780
vn -0.8822 -0.4639 0.0808
vn -0.8800 -0.4681 0.0807
vn -0.8811 -0.4661 0.0805
vn 0.4760 0.8760 0.0771
vn 0.4718 0.8783 0.0771
vn 0.4738 0.8773 0.0768
vn 0.4718 0.8784 0.0770
vn 0.4700 0.8793 0.0770
vn 0.4718 0.8784 0.0768
vn 0.4718 0.8783 0.0772
vn 0.4700 0.8793 0.0772
vn 0.4700 0.8793 0.0771
vn 0.4760 0.8760 0.0773
vn 0.4738 0.8773 0.0773
vn 0.4738 0.8773 0.0771
vn -0.8800 -0.4681 0.0806
vn -0.8791 -0.4699 0.0806
vn -0.8800 -0.4681 0.0805
vn -0.8800 -0.4681 0.0809
vn -0.8790 -0.4699 0.0809
vn -0.8790 -0.4699 0.0807
vn -0.8822 -0.4639 0.0809
vn -0.8810 -0.4661 0.0809
vn -0.8810 -0.4661 0.0808
vn 0.6343 0.7691 0.0781
vn 0.6325 0.7706 0.0781
vn 0.6343 0.7691 0.0780
vn 0.6343 0.7691 0.0785
vn 0.6324 0.7706 0.0785
vn 0.6324 0.7706 0.0783
vn 0.6386 0.7655 0.0785
vn 0.6363 0.7674 0.0785
vn 0.6363 0.7674 0.0783
vn -0.9546 -0.2866 0.0815
vn -0.9541 -0.2880 0.0815
vn -0.9542 -0.2880 0.0814
vn -0.9541 -0.2880 0.0817
vn -0.9537 -0.2893 0.0817
vn -0.9537 -0.2893 0.0816
vn -0.9550 -0.2850 0.0817
vn -0.9546 -0.2866 0.0817
vn -0.9546 -0.2866 0.0816
vn 0.7721 0.6306 0.0794
vn 0.7706 0.6324 0.0794
vn 0.7721 0.6306 0.0793
vn 0.7720 0.6305 0.0798
vn 0.7706 0.6324 0.0797
vn 0.7706 0.6324 0.0796
vn 0.7756 0.6261 0.0798
vn 0.7737 0.6285 0.0798
vn 0.7737 0.6285 0.0796
vn -0.2113 -0.9772 -0.0186
vn -0.9946 -0.0980 -0.0335
vn -0.9918 -0.0977 0.0820
vn -0.6598 -0.7454 0.0953
vn -0.2109 -0.9753 0.0650
vn 0.8800 0.4681 0.0806
vn 0.8791 0.4699 0.0806
vn 0.8800 0.4681 0.0805
vn 0.8800 0.4681 0.0809
vn 0.8790 0.4699 0.0809
vn 0.8790 0.4699 0.0807
vn 0.8822 0.4639 0.0809
vn 0.8810 0.4661 0.0809
vn 0.8810 0.4661 0.0808
vn -0.9919 0.0967 0.0820
vn -0.9919 0.0972 0.0819
vn -0.9918 0.0977 0.0819
vn -0.9918 0.0977 0.0820
vn -0.9920 0.0961 0.0819
vn -0.9919 0.0967 0.0819
vn 0.9546 0.2866 0.0815
vn 0.9541 0.2880 0.0815
vn 0.9542 0.2880 0.0814
vn 0.9541 0.2880 0.0817
vn 0.9537 0.2893 0.0817
vn 0.9537 0.2893 0.0816
vn 0.9550 0.2850 0.0817
vn 0.9546 0.2866 0.0817
vn 0.9546 0.2866 0.0816
vn -0.9546 0.2866 0.0815
vn -0.9541 0.2880 0.0815
vn -0.9541 0.2880 0.0816
vn -0.9542 0.2880 0.0813
vn -0.9538 0.2893 0.0813
vn -0.9538 0.2893 0.0814
vn -0.9551 0.2850 0.0813
vn -0.9546 0.2866 0.0813
vn -0.9546 0.2866 0.0814
vn 0.2061 0.9783 -0.0195
vn 0.9946 0.0980 -0.0345
vn 0.9918 0.0977 0.0820
vn 0.6236 0.7760 0.0943
vn 0.2057 0.9766 0.0636
vn -0.8810 0.4661 0.0806
vn -0.8800 0.4681 0.0806
vn -0.8800 0.4681 0.0807
vn -0.8800 0.4681 0.0803
vn -0.8791 0.4699 0.0803
vn -0.8800 0.4681 0.0805
vn -0.8823 0.4639 0.0803
vn -0.8811 0.4661 0.0803
vn -0.8822 0.4639 0.0805
vn 0.9919 -0.0967 0.0820
vn 0.9919 -0.0972 0.0819
vn 0.9918 -0.0977 0.0819
vn 0.9918 -0.0977 0.0820
vn 0.9920 -0.0961 0.0819
vn 0.9919 -0.0967 0.0819
vn -0.7737 0.6285 0.0794
vn -0.7721 0.6306 0.0794
vn -0.7721 0.6305 0.0796
vn -0.7721 0.6306 0.0791
vn -0.7706 0.6324 0.0791
vn -0.7721 0.6306 0.0793
vn -0.7757 0.6262 0.0791
vn -0.7738 0.6285 0.0791
vn -0.7756 0.6262 0.0792
vn 0.9546 -0.2866 0.0815
vn 0.9541 -0.2880 0.0815
vn 0.9541 -0.2880 0.0816
vn 0.9542 -0.2880 0.0813
vn 0.9538 -0.2893 0.0813
vn 0.9538 -0.2893 0.0814
vn 0.9551 -0.2850 0.0813
vn 0.9546 -0.2866 0.0813
vn 0.9546 -0.2866 0.0814
vn -0.6363 0.7674 0.0781
vn -0.6343 0.7691 0.0781
vn -0.6343 0.7691 0.0783
vn -0.6343 0.7692 0.0778
vn -0.6325 0.7707 0.0778
vn -0.6343 0.7692 0.0780
vn -0.6387 0.7655 0.0778
vn -0.6364 0.7675 0.0778
vn -0.6387 0.7655 0.0780
vn 0.8810 -0.4661 0.0806
vn 0.8800 -0.4681 0.0806
vn 0.8800 -0.4681 0.0807
vn 0.8800 -0.4681 0.0803
vn 0.8791 -0.4699 0.0803
vn 0.8800 -0.4681 0.0805
vn 0.8823 -0.4639 0.0803
vn 0.8811 -0.4661 0.0803
vn 0.8822 -0.4639 0.0805
vn -0.4738 0.8773 0.0770
vn -0.4718 0.8784 0.0770
vn -0.4718 0.8783 0.0771
vn -0.4718 0.8784 0.0767
vn -0.4700 0.8793 0.0767
vn -0.4718 0.8784 0.0768
vn -0.4760 0.8761 0.0766
vn -0.4738 0.8773 0.0767
vn -0.4760 0.8761 0.0768
vn 0.7737 -0.6285 0.0794
vn 0.7721 -0.6306 0.0794
vn 0.7721 -0.6305 0.0796
vn 0.7721 -0.6306 0.0791
vn 0.7706 -0.6324 0.0791
vn 0.7721 -0.6306 0.0793
vn 0.7757 -0.6262 0.0791
vn 0.7738 -0.6285 0.0791
vn 0.7756 -0.6262 0.0792
vn -0.2922 0.9533 0.0761
vn -0.2907 0.9538 0.0761
vn -0.2907 0.9538 0.0759
vn -0.2894 0.9542 0.0759
vn -0.2894 0.9542 0.0760
vn -0.2938 0.9528 0.0758
vn -0.2922 0.9533 0.0758
vn -0.2922 0.9533 0.0759
vn 0.6363 -0.7674 0.0781
vn 0.6343 -0.7691 0.0781
vn 0.6343 -0.7691 0.0783
vn 0.6343 -0.7692 0.0778
vn 0.6325 -0.7707 0.0778
vn 0.6343 -0.7691 0.0780
vn 0.6387 -0.7655 0.0778
vn 0.6364 -0.7675 0.0778
vn 0.6387 -0.7655 0.0780
vn -0.0982 0.9923 0.0756
vn -0.9736 0.2275 -0.0199
vn -0.0980 0.9949 -0.0224
vn -0.0977 0.9923 0.0755
vn -0.7157 0.6926 0.0906
vn -0.9718 0.2270 0.0644
vn -0.0987 0.9922 0.0755
vn 0.4738 -0.8773 0.0770
vn 0.4718 -0.8784 0.0770
vn 0.4718 -0.8783 0.0771
vn 0.4718 -0.8784 0.0767
vn 0.4700 -0.8793 0.0767
vn 0.4718 -0.8784 0.0768
vn 0.4760 -0.8761 0.0766
vn 0.4738 -0.8773 0.0767
vn 0.4760 -0.8761 0.0768
vn 0.2922 -0.9533 0.0761
vn 0.2907 -0.9538 0.0761
vn 0.2907 -0.9538 0.0759
vn 0.2894 -0.9542 0.0759
vn 0.2894 -0.9542 0.0760
vn 0.2938 -0.9528 0.0758
vn 0.2922 -0.9533 0.0758
vn 0.2922 -0.9533 0.0759
vn 0.0982 -0.9923 0.0756
vn 0.9754 -0.2190 -0.0252
vn 0.0980 -0.9952 -0.0061
vn 0.0977 -0.9923 0.0755
vn 0.8289 -0.5526 0.0874
vn 0.9741 -0.2187 0.0584
vn 0.0987 -0.9922 0.0755
vn -0.0987 -0.9922 0.0756
vn -0.7983 -0.6003 0.0487
vn -0.0977 -0.9923 0.0756
vn -0.2922 -0.9533 0.0761
vn -0.2907 -0.9538 0.0760
vn -0.2907 -0.9538 0.0762
vn -0.2894 -0.9542 0.0762
vn -0.2894 -0.9542 0.0761
vn -0.2938 -0.9528 0.0763
vn -0.2922 -0.9533 0.0763
vn -0.2922 -0.9533 0.0762
vn -0.4718 -0.8784 0.0770
vn -0.4700 -0.8793 0.0770
vn -0.4718 -0.8784 0.0768
vn -0.4718 -0.8783 0.0772
vn -0.4700 -0.8793 0.0772
vn -0.4700 -0.8793 0.0771
vn -0.4760 -0.8760 0.0773
vn -0.4738 -0.8773 0.0773
vn -0.4738 -0.8773 0.0771
vn 0.0987 0.9922 0.0756
vn 0.0977 0.9923 0.0756
vn -0.6343 -0.7691 0.0781
vn -0.6325 -0.7706 0.0781
vn -0.6343 -0.7692 0.0780
vn -0.6343 -0.7691 0.0785
vn -0.6324 -0.7706 0.0785
vn -0.6324 -0.7706 0.0783
vn -0.6386 -0.7655 0.0785
vn -0.6363 -0.7674 0.0785
vn -0.6363 -0.7674 0.0783
vn 0.2922 0.9533 0.0761
vn 0.2907 0.9538 0.0760
vn 0.2907 0.9538 0.0762
vn 0.2894 0.9542 0.0762
vn 0.2894 0.9542 0.0761
vn 0.2938 0.9528 0.0763
vn 0.2922 0.9533 0.0763
vn 0.2922 0.9533 0.0762
vn -0.7721 -0.6306 0.0794
vn -0.7706 -0.6324 0.0794
vn -0.7721 -0.6306 0.0793
vn -0.7720 -0.6305 0.0798
vn -0.7706 -0.6324 0.0797
vn -0.7706 -0.6324 0.0796
vn -0.7756 -0.6261 0.0798
vn -0.7737 -0.6285 0.0798
vn -0.7737 -0.6285 0.0796
vn -0.7756 -0.6262 0.0794
vn -0.7737 -0.6285 0.0794
vn -0.7756 -0.6262 0.0792
vn 0.2957 0.9522 0.0761
vn 0.2938 0.9528 0.0761
vn 0.2938 0.9528 0.0759
vn -0.6387 -0.7655 0.0782
vn -0.6363 -0.7674 0.0781
vn -0.6387 -0.7655 0.0780
vn 0.1000 0.9921 0.0756
vn 0.7175 0.6943 0.0555
vn -0.4760 -0.8761 0.0770
vn -0.4738 -0.8773 0.0770
vn -0.4760 -0.8761 0.0768
vn -0.2957 -0.9522 0.0761
vn -0.2938 -0.9528 0.0761
vn -0.2938 -0.9528 0.0759
vn -0.1000 -0.9921 0.0756
vn -0.8312 -0.5541 0.0453
vn 0.0993 -0.9922 0.0756
vn 0.2957 -0.9522 0.0761
vn 0.2938 -0.9528 0.0761
vn 0.2938 -0.9528 0.0762
vn 0.4786 -0.8746 0.0770
vn 0.4760 -0.8761 0.0770
vn 0.4760 -0.8760 0.0771
vn -0.0993 0.9922 0.0756
vn 0.6413 -0.7633 0.0782
vn 0.6387 -0.7655 0.0782
vn 0.6386 -0.7655 0.0783
vn -0.2957 0.9522 0.0761
vn -0.2938 0.9528 0.0761
vn -0.2938 0.9528 0.0762
vn 0.7778 -0.6235 0.0794
vn 0.7756 -0.6262 0.0794
vn 0.7756 -0.6262 0.0796
vn -0.4786 0.8746 0.0770
vn -0.4760 0.8761 0.0770
vn -0.4760 0.8760 0.0771
vn 0.8836 -0.4613 0.0806
vn 0.8822 -0.4639 0.0806
vn 0.8822 -0.4639 0.0808
vn -0.6413 0.7633 0.0782
vn -0.6387 0.7655 0.0782
vn -0.6386 0.7655 0.0783
vn 0.9556 -0.2832 0.0815
vn 0.9551 -0.2850 0.0815
vn 0.9551 -0.2850 0.0816
vn -0.7778 0.6235 0.0794
vn -0.7756 0.6262 0.0794
vn -0.7756 0.6262 0.0796
vn 0.9921 -0.0954 0.0820
vn 0.6255 -0.7783 0.0544
vn -0.8836 0.4613 0.0806
vn -0.8822 0.4639 0.0806
vn -0.8822 0.4639 0.0808
vn -0.9556 0.2832 0.0815
vn -0.9551 0.2850 0.0815
vn -0.9551 0.2850 0.0816
vn 0.9556 0.2832 0.0815
vn 0.9551 0.2850 0.0815
vn 0.9551 0.2850 0.0814
vn -0.9921 0.0954 0.0820
vn -0.6617 0.7475 0.0573
vn 0.8822 0.4639 0.0806
vn 0.8810 0.4661 0.0806
vn 0.8822 0.4639 0.0805
vn 0.7756 0.6262 0.0794
vn 0.7737 0.6285 0.0794
vn 0.7756 0.6262 0.0792
vn -0.9556 -0.2832 0.0815
vn -0.9551 -0.2850 0.0815
vn -0.9551 -0.2850 0.0814
vn 0.6387 0.7655 0.0782
vn 0.6363 0.7674 0.0781
vn 0.6387 0.7655 0.0780
vn -0.8822 -0.4639 0.0806
vn -0.8810 -0.4661 0.0806
vn -0.8822 -0.4639 0.0805
vn 0.4760 0.8761 0.0770
vn 0.4738 0.8773 0.0770
vn 0.4760 0.8761 0.0768
vn 0.0945 0.9596 0.2651
vn 0.2801 0.9234 0.2625
vn 0.4554 0.8520 0.2583
vn 0.6137 0.7478 0.2531
vn 0.7489 0.6146 0.2477
vn 0.8555 0.4573 0.2428
vn 0.9291 0.2819 0.2393
vn 0.9667 0.0952 0.2377
vn 0.9667 -0.0952 0.2377
vn 0.9291 -0.2819 0.2393
vn 0.8555 -0.4573 0.2428
vn 0.7489 -0.6146 0.2477
vn 0.6137 -0.7478 0.2531
vn 0.4554 -0.8520 0.2583
vn 0.2801 -0.9234 0.2625
vn 0.0945 -0.9596 0.2651
vn -0.0945 -0.9596 0.2651
vn -0.2801 -0.9234 0.2625
vn -0.4554 -0.8520 0.2583
vn -0.6137 -0.7478 0.2531
vn -0.7489 -0.6146 0.2477
vn -0.8555 -0.4573 0.2428
vn -0.9291 -0.2819 0.2393
vn -0.9667 -0.0952 0.2377
vn -0.9667 0.0952 0.2377
vn -0.9291 0.2819 0.2393
vn -0.8555 0.4573 0.2428
vn -0.7489 0.6146 0.2477
vn -0.6137 0.7478 0.2531
vn -0.4554 0.8520 0.2583
vn -0.2801 0.9234 0.2625
vn -0.0945 0.9596 0.2651
vn 0.4800 0.8772 -0.0000
vn 0.4787 0.8780 0.0001
vn -0.8865 -0.4628 -0.0004
vn -0.8857 -0.4642 -0.0004
vn -0.9302 0.3482 0.1163
vn 0.6419 0.7668 -0.0000
vn 0.6419 0.7668 -0.0001
vn -0.9585 -0.2851 -0.0005
vn 0.7791 0.6269 -0.0002
vn 0.7791 0.6269 -0.0003
vn -0.9954 -0.0961 -0.0006
vn 0.8865 0.4628 -0.0004
vn -0.0000 -0.0000 1.0000
vn 0.8857 0.4642 -0.0004
vn -0.9954 0.0961 -0.0006
vn 0.9585 0.2851 -0.0005
vn -0.9585 0.2851 -0.0005
vn 0.9954 0.0961 -0.0006
vn -0.8857 0.4642 -0.0004
vn 0.9954 -0.0961 -0.0006
vn -0.7802 0.6255 -0.0002
vn -0.7791 0.6269 -0.0003
vn 0.9585 -0.2851 -0.0005
vn -0.6433 0.7656 -0.0000
vn -0.6419 0.7668 -0.0001
vn 0.8865 -0.4628 -0.0004
vn 0.8857 -0.4642 -0.0004
vn -0.4787 0.8780 -0.0000
vn -0.4787 0.8780 0.0001
vn 0.7802 -0.6255 -0.0002
vn 0.7791 -0.6269 -0.0003
vn -0.2956 0.9553 0.0002
vn 0.6433 -0.7656 -0.0000
vn 0.6419 -0.7668 -0.0001
vn -0.0000 1.0000 -0.0000
vn -0.1000 0.9950 0.0002
vn -0.1000 0.9950 0.0003
vn 0.4787 -0.8780 -0.0000
vn 0.4787 -0.8780 0.0001
vn 0.2956 -0.9553 0.0002
vn 0.1000 -0.9950 0.0002
vn 0.1000 -0.9950 0.0003
vn -0.1003 -0.9950 0.0002
vn -0.1000 -0.9950 0.0003
vn -0.2956 -0.9553 0.0002
vn -0.4800 -0.8772 -0.0000
vn -0.4787 -0.8780 0.0001
vn 0.1003 0.9950 0.0002
vn 0.1000 0.9950 0.0003
vn -0.6419 -0.7668 -0.0000
vn -0.6419 -0.7668 -0.0001
vn 0.2956 0.9553 0.0002
vn -0.7791 -0.6269 -0.0002
vn -0.7791 -0.6269 -0.0003
vn 0.4760 0.8761 0.0766
vn -0.8823 -0.4639 0.0803
vn 0.6387 0.7655 0.0778
vn -0.9551 -0.2850 0.0813
vn 0.7757 0.6262 0.0791
vn -0.9920 -0.0961 0.0819
vn 0.8823 0.4639 0.0803
vn -0.6598 0.7454 0.0953
vn 0.9551 0.2850 0.0813
vn -0.9550 0.2850 0.0817
vn 0.9920 0.0961 0.0819
vn -0.8822 0.4639 0.0809
vn 0.6236 -0.7760 0.0943
vn -0.7756 0.6261 0.0798
vn 0.9550 -0.2850 0.0817
vn -0.6386 0.7655 0.0785
vn 0.8822 -0.4639 0.0809
vn -0.4760 0.8760 0.0773
vn 0.7756 -0.6261 0.0798
vn -0.2938 0.9528 0.0763
vn 0.6386 -0.7655 0.0785
vn 0.4760 -0.8760 0.0773
vn 0.2938 -0.9528 0.0763
vn -0.8289 -0.5526 0.0874
vn -0.2938 -0.9528 0.0758
vn -0.4760 -0.8761 0.0766
vn 0.7157 0.6926 0.0906
vn -0.6387 -0.7655 0.0778
vn 0.2938 0.9528 0.0758
vn -0.7757 -0.6262 0.0791
vn -0.0000 0.7805 0.6251
vn -0.7778 -0.6235 0.0794
vn -0.7721 -0.6306 0.0791
vn 0.2907 0.9538 0.0759
vn -0.6413 -0.7633 0.0782
vn -0.6343 -0.7692 0.0778
vn 0.9736 0.2275 -0.0199
vn -0.4786 -0.8746 0.0770
vn -0.4718 -0.8784 0.0767
vn -0.2907 -0.9538 0.0759
vn -0.9754 -0.2190 -0.0252
vn 0.2907 -0.9538 0.0762
vn 0.4718 -0.8783 0.0772
vn 0.6343 -0.7691 0.0785
vn -0.2907 0.9538 0.0762
vn 0.7720 -0.6305 0.0798
vn -0.4718 0.8783 0.0772
vn 0.8800 -0.4681 0.0809
vn -0.6343 0.7691 0.0785
vn 0.9541 -0.2880 0.0817
vn -0.7720 0.6305 0.0798
vn 0.2061 -0.9783 -0.0195
vn -0.8800 0.4681 0.0809
vn 0.9919 0.0972 0.0819
vn -0.9541 0.2880 0.0817
vn 0.9542 0.2880 0.0813
vn -0.2113 0.9772 -0.0186
vn 0.8836 0.4613 0.0806
vn 0.8800 0.4681 0.0803
vn -0.9919 -0.0972 0.0819
vn 0.7778 0.6235 0.0794
vn 0.7721 0.6306 0.0791
vn -0.9542 -0.2880 0.0813
vn 0.6413 0.7633 0.0782
vn 0.6343 0.7692 0.0778
vn -0.8836 -0.4613 0.0806
vn -0.8800 -0.4681 0.0803
vn 0.4786 0.8746 0.0770
vn 0.4718 0.8784 0.0767
vn 0.4700 0.8793 0.0767
vn 0.4786 0.8746 0.0771
vn -0.8791 -0.4699 0.0803
vn -0.8836 -0.4613 0.0808
vn 0.6343 0.7692 0.0780
vn 0.6325 0.7707 0.0778
vn 0.6413 0.7633 0.0784
vn -0.9538 -0.2893 0.0814
vn -0.9538 -0.2893 0.0813
vn -0.9556 -0.2831 0.0816
vn 0.7706 0.6324 0.0791
vn 0.7721 0.6305 0.0796
vn 0.7778 0.6235 0.0796
vn -0.9918 -0.0977 0.0819
vn -0.4785 -0.8771 0.0426
vn -0.9920 -0.0954 0.0820
vn -0.6617 -0.7475 0.0573
vn 0.8791 0.4699 0.0803
vn 0.8836 0.4613 0.0808
vn -0.9946 0.0980 -0.0335
vn 0.9538 0.2893 0.0814
vn 0.9538 0.2893 0.0813
vn 0.9556 0.2831 0.0816
vn -0.9537 0.2893 0.0816
vn -0.9537 0.2893 0.0817
vn -0.9556 0.2832 0.0814
vn 0.9918 0.0977 0.0819
vn 0.4755 0.8787 0.0424
vn 0.9920 0.0954 0.0820
vn 0.6255 0.7783 0.0544
vn -0.8790 0.4699 0.0807
vn -0.8790 0.4699 0.0809
vn -0.8791 0.4699 0.0806
vn 0.9946 -0.0980 -0.0345
vn -0.7721 0.6306 0.0796
vn -0.7706 0.6324 0.0796
vn -0.7706 0.6324 0.0797
vn -0.7706 0.6324 0.0794
vn 0.9537 -0.2893 0.0816
vn 0.9537 -0.2893 0.0817
vn 0.9556 -0.2832 0.0814
vn -0.6324 0.7706 0.0783
vn -0.6324 0.7706 0.0785
vn -0.6343 0.7691 0.0780
vn -0.6325 0.7706 0.0781
vn 0.8790 -0.4699 0.0807
vn 0.8790 -0.4699 0.0809
vn 0.8791 -0.4699 0.0806
vn -0.4700 0.8793 0.0771
vn -0.4700 0.8793 0.0772
vn -0.4700 0.8793 0.0770
vn 0.7721 -0.6306 0.0796
vn 0.7706 -0.6324 0.0796
vn 0.7706 -0.6324 0.0797
vn 0.7706 -0.6324 0.0794
vn -0.2894 0.9542 0.0761
vn -0.2894 0.9542 0.0762
vn -0.2957 0.9523 0.0759
vn 0.6324 -0.7706 0.0783
vn 0.6324 -0.7706 0.0785
vn 0.6343 -0.7692 0.0780
vn 0.6325 -0.7706 0.0781
vn -0.0977 0.9923 0.0756
vn -0.8435 0.5353 0.0439
vn -0.1000 0.9921 0.0755
vn -0.7175 0.6943 0.0555
vn 0.4700 -0.8793 0.0771
vn 0.4700 -0.8793 0.0772
vn 0.4700 -0.8793 0.0770
vn 0.2894 -0.9542 0.0761
vn 0.2894 -0.9542 0.0762
vn 0.2957 -0.9523 0.0759
vn 0.0977 -0.9923 0.0756
vn 0.7983 -0.6004 0.0487
vn 0.7983 -0.6003 0.0487
vn 0.1000 -0.9921 0.0755
vn 0.8312 -0.5541 0.0453
vn -0.0982 -0.9923 0.0755
vn -0.0977 -0.9923 0.0755
vn -0.0980 -0.9952 -0.0061
vn -0.2894 -0.9542 0.0760
vn -0.2894 -0.9542 0.0759
vn -0.2957 -0.9522 0.0762
vn -0.4700 -0.8793 0.0767
vn -0.4786 -0.8746 0.0771
vn 0.0982 0.9923 0.0755
vn 0.0977 0.9923 0.0755
vn 0.0980 0.9949 -0.0224
vn -0.6343 -0.7691 0.0780
vn -0.6325 -0.7707 0.0778
vn -0.6413 -0.7633 0.0784
vn 0.2894 0.9542 0.0760
vn 0.2894 0.9542 0.0759
vn 0.2957 0.9522 0.0762
vn -0.7706 -0.6324 0.0791
vn -0.7721 -0.6305 0.0796
vn -0.7778 -0.6235 0.0796
vn -0.7738 -0.6285 0.0791
vn 0.2922 0.9533 0.0758
vn -0.6364 -0.7675 0.0778
vn 0.0993 0.9922 0.0755
vn 0.0987 0.9922 0.0755
vn 0.9718 0.2270 0.0644
vn -0.4738 -0.8773 0.0767
vn -0.2922 -0.9533 0.0758
vn -0.0993 -0.9922 0.0755
vn -0.0987 -0.9922 0.0755
vn -0.9741 -0.2187 0.0584
vn 0.2922 -0.9533 0.0763
vn 0.4738 -0.8773 0.0773
vn 0.6363 -0.7674 0.0785
vn -0.2922 0.9533 0.0763
vn 0.7737 -0.6285 0.0798
vn -0.4738 0.8773 0.0773
vn 0.8810 -0.4661 0.0809
vn -0.6363 0.7674 0.0785
vn 0.9546 -0.2866 0.0817
vn -0.7737 0.6285 0.0798
vn 0.2057 -0.9766 0.0636
vn -0.8810 0.4661 0.0809
vn 0.9919 0.0967 0.0819
vn -0.9546 0.2866 0.0817
vn 0.9546 0.2866 0.0813
vn -0.2109 0.9753 0.0650
vn 0.8811 0.4661 0.0803
vn -0.9919 -0.0967 0.0819
vn 0.7738 0.6285 0.0791
vn -0.9546 -0.2866 0.0813
vn 0.6364 0.7675 0.0778
vn -0.8811 -0.4661 0.0803
vn 0.4738 0.8773 0.0767
s 0
usemtl マテリアル.002
f 4//34 65//34 97//34
f 65//34 2//34 97//34
f 2//35 96//35 97//35
f 96//35 64//35 97//35
f 64//36 95//36 97//36
f 95//36 62//36 97//36
f 62//37 94//37 97//37
f 94//37 60//37 97//37
f 60//38 93//38 97//38
f 93//38 58//38 97//38
f 58//39 92//39 97//39
f 92//39 56//39 97//39
f 56//40 91//40 97//40
f 91//40 54//40 97//40
f 54//41 90//41 97//41
f 90//41 52//41 97//41
f 52//42 89//42 97//42
f 89//42 50//42 97//42
f 50//43 88//43 97//43
f 88//43 48//43 97//43
f 48//44 87//44 97//44
f 87//44 46//44 97//44
f 46//45 86//45 97//45
f 86//45 44//45 97//45
f 44//46 85//46 97//46
f 85//46 42//46 97//46
f 42//47 84//47 97//47
f 84//47 40//47 97//47
f 40//48 83//48 97//48
f 83//48 38//48 97//48
f 38//49 82//49 97//49
f 82//49 36//49 97//49
f 36//50 81//50 97//50
f 81//50 34//50 97//50
f 34//51 80//51 97//51
f 80//51 32//51 97//51
f 32//52 79//52 97//52
f 79//52 30//52 97//52
f 30//53 78//53 97//53
f 78//53 28//53 97//53
f 28//54 77//54 97//54
f 77//54 26//54 97//54
f 26//55 76//55 97//55
f 76//55 24//55 97//55
f 24//56 75//56 97//56
f 75//56 22//56 97//56
f 22//57 74//57 97//57
f 74//57 20//57 97//57
f 20//58 73//58 97//58
f 73//58 18//58 97//58
f 18//59 72//59 97//59
f 72//59 16//59 97//59
f 16//60 71//60 97//60
f 71//60 14//60 97//60
f 14//61 70//61 97//61
f 70//61 12//61 97//61
f 12//62 69//62 97//62
f 69//62 10//62 97//62
f 10//63 68//63 97//63
f 68//63 8//63 97//63
f 8//64 67//64 97//64
f 67//64 6//64 97//64
f 6//65 66//65 97//65
f 66//65 4//65 97//65
f 195//66 419//66 67//66
f 196//67 324//67 86//67
f 197//68 113//68 68//68
f 198//69 326//69 87//69
f 199//70 423//70 69//70
f 200//71 328//71 88//71
f 329//72 425//72 70//72
f 202//73 426//73 89//73
f 203//74 427//74 71//74
f 204//75 428//75 90//75
f 205//76 429//76 72//76
f 206//77 430//77 91//77
f 207//78 335//78 73//78
f 208//79 432//79 92//79
f 209//80 337//80 74//80
f 210//81 434//81 93//81
f 435//82 339//82 75//82
f 212//83 436//83 94//83
f 213//84 341//84 76//84
f 214//85 438//85 95//85
f 215//86 343//86 77//86
f 216//87 99//87 96//87
f 217//88 345//88 78//88
f 218//89 346//89 79//89
f 219//90 347//90 80//90
f 220//91 348//91 81//91
f 221//92 349//92 82//92
f 222//93 350//93 83//93
f 223//94 447//94 65//94
f 224//95 352//95 84//95
f 225//96 449//96 66//96
f 226//97 354//97 85//97
f 762//105 110//105 426//105
f 760//107 118//107 428//107
f 758//109 125//109 430//109
f 757//110 119//110 335//110
f 756//111 101//111 432//111
f 755//112 126//112 337//112
f 754//113 108//113 434//113
f 753//114 102//114 339//114
f 752//115 116//115 436//115
f 751//116 109//116 341//116
f 750//117 123//117 438//117
f 749//118 117//118 343//118
f 748//119 99//119 440//119
f 747//120 124//120 345//120
f 746//121 100//121 346//121
f 745//122 107//122 347//122
f 744//123 115//123 348//123
f 741//126 114//126 447//126
f 170//130 258//130 386//130
f 183//131 259//131 483//131
f 177//132 260//132 388//132
f 191//133 261//133 485//133
f 184//134 262//134 390//134
f 167//135 263//135 487//135
f 192//136 264//136 392//136
f 174//137 265//137 393//137
f 168//138 266//138 394//138
f 181//139 267//139 395//139
f 175//140 268//140 396//140
f 189//141 269//141 397//141
f 182//142 270//142 494//142
f 165//143 271//143 399//143
f 190//144 272//144 496//144
f 172//145 273//145 148//145
f 166//146 274//146 498//146
f 179//147 275//147 403//147
f 173//148 276//148 500//148
f 186//149 277//149 405//149
f 180//150 278//150 502//150
f 163//151 279//151 131//151
f 187//152 280//152 504//152
f 164//153 281//153 505//153
f 171//154 282//154 506//154
f 178//155 283//155 507//155
f 185//156 284//156 508//156
f 193//157 285//157 509//157
f 188//158 286//158 414//158
f 169//159 287//159 511//159
f 162//160 288//160 416//160
f 176//161 289//161 513//161
f 418//173 529//173 726//173
f 371//182 541//182 717//182
f 542//183 443//183 716//183
f 543//184 544//184 715//184
f 714//185 236//185 545//185
f 546//186 442//186 713//186
f 547//187 548//187 712//187
f 711//188 229//188 549//188
f 710//189 217//189 441//189
f 709//190 299//190 552//190
f 708//191 252//191 553//191
f 554//192 344//192 707//192
f 555//193 556//193 706//193
f 705//194 228//194 557//194
f 704//195 215//195 439//195
f 703//196 301//196 560//196
f 702//197 245//197 561//197
f 562//198 342//198 701//198
f 563//199 564//199 700//199
f 699//200 251//200 565//200
f 698//201 213//201 437//201
f 697//202 303//202 568//202
f 696//203 238//203 569//203
f 695//204 212//204 340//204
f 694//205 304//205 572//205
f 693//206 244//206 573//206
f 692//207 211//207 435//207
f 691//208 305//208 576//208
f 690//209 231//209 577//209
f 689//210 210//210 338//210
f 688//211 306//211 580//211
f 687//212 237//212 581//212
f 582//213 433//213 686//213
f 583//214 584//214 685//214
f 684//215 254//215 585//215
f 683//216 208//216 336//216
f 682//217 308//217 588//217
f 681//218 230//218 589//218
f 590//219 431//219 680//219
f 591//220 592//220 679//220
f 375//221 593//221 678//221
f 677//222 206//222 334//222
f 676//223 310//223 596//223
f 675//224 253//224 597//224
f 602//228 332//228 671//228
f 603//229 604//229 670//229
f 669//230 246//230 605//230
f 610//234 330//234 665//234
f 611//235 612//235 664//235
f 367//236 613//236 663//236
f 367//303 620//303 239//303
f 487//304 367//304 143//304
f 659//306 110//306 463//306
f 620//307 463//307 239//307
f 611//317 613//317 314//317
f 265//235 663//235 611//235
f 489//236 367//236 663//236
f 664//318 246//318 374//318
f 393//319 374//319 150//319
f 265//320 664//320 393//320
f 665//321 118//321 470//321
f 612//322 470//322 246//322
f 314//317 665//317 612//317
f 603//332 605//332 312//332
f 267//333 669//333 603//333
f 491//334 374//334 669//334
f 670//335 253//335 381//335
f 395//336 381//336 157//336
f 267//337 670//337 395//337
f 671//338 125//338 477//338
f 604//339 477//339 253//339
f 312//340 671//340 604//340
f 375//341 600//341 247//341
f 396//342 375//342 151//342
f 674//344 119//344 471//344
f 600//345 471//345 247//345
f 595//346 597//346 310//346
f 269//347 675//347 595//347
f 493//348 381//348 675//348
f 676//349 230//349 358//349
f 397//350 358//350 134//350
f 397//351 595//351 676//351
f 677//352 101//352 454//352
f 596//353 454//353 230//353
f 596//354 594//354 677//354
f 591//355 593//355 309//355
f 270//220 678//220 591//220
f 398//221 375//221 678//221
f 679//356 254//356 382//356
f 494//357 382//357 158//357
f 270//358 679//358 494//358
f 680//359 126//359 478//359
f 592//360 478//360 254//360
f 309//355 680//355 592//355
f 587//361 589//361 308//361
f 271//362 681//362 587//362
f 495//363 358//363 681//363
f 682//364 237//364 365//364
f 399//365 365//365 141//365
f 399//366 587//366 682//366
f 683//367 108//367 461//367
f 588//368 461//368 237//368
f 588//369 586//369 683//369
f 583//370 585//370 307//370
f 272//371 684//371 583//371
f 400//372 382//372 684//372
f 685//373 231//373 359//373
f 496//374 359//374 135//374
f 272//375 685//375 496//375
f 686//376 102//376 455//376
f 584//377 455//377 231//377
f 307//378 686//378 584//378
f 579//379 581//379 306//379
f 273//380 687//380 579//380
f 497//381 365//381 687//381
f 688//382 244//382 372//382
f 401//383 372//383 148//383
f 401//384 579//384 688//384
f 689//385 116//385 468//385
f 580//386 468//386 244//386
f 580//387 578//387 689//387
f 575//388 577//388 305//388
f 274//389 690//389 575//389
f 402//390 359//390 690//390
f 691//391 238//391 366//391
f 498//392 366//392 142//392
f 498//393 575//393 691//393
f 692//394 109//394 462//394
f 576//395 462//395 238//395
f 576//396 574//396 692//396
f 571//397 573//397 304//397
f 275//398 693//398 571//398
f 499//399 372//399 693//399
f 694//400 251//400 379//400
f 403//401 379//401 155//401
f 403//402 571//402 694//402
f 695//403 123//403 475//403
f 572//404 475//404 251//404
f 572//405 570//405 695//405
f 567//406 569//406 303//406
f 276//407 696//407 567//407
f 404//408 366//408 696//408
f 697//409 245//409 373//409
f 500//410 373//410 149//410
f 500//411 567//411 697//411
f 698//412 117//412 469//412
f 568//413 469//413 245//413
f 568//414 566//414 698//414
f 563//415 565//415 302//415
f 277//199 699//199 563//199
f 501//416 379//416 699//416
f 700//417 228//417 356//417
f 405//418 356//418 132//418
f 277//419 700//419 405//419
f 701//420 99//420 452//420
f 564//421 452//421 228//421
f 302//422 701//422 564//422
f 559//423 561//423 301//423
f 278//424 702//424 559//424
f 406//425 373//425 702//425
f 703//426 252//426 380//426
f 502//427 380//427 156//427
f 502//428 559//428 703//428
f 704//429 124//429 476//429
f 560//430 476//430 252//430
f 560//431 558//431 704//431
f 555//194 557//194 300//194
f 279//432 705//432 555//432
f 503//432 356//432 705//432
f 418//433 556//433 194//433
f 407//434 418//434 131//434
f 279//435 706//435 407//435
f 707//436 114//436 322//436
f 556//437 322//437 194//437
f 300//438 707//438 556//438
f 551//439 553//439 299//439
f 280//440 708//440 551//440
f 408//441 380//441 708//441
f 709//442 229//442 357//442
f 504//443 357//443 133//443
f 504//444 551//444 709//444
f 710//445 100//445 453//445
f 552//446 453//446 229//446
f 552//447 550//447 710//447
f 547//448 549//448 298//448
f 281//187 711//187 547//187
f 409//449 357//449 711//449
f 712//450 236//450 364//450
f 505//451 364//451 140//451
f 281//452 712//452 505//452
f 713//453 107//453 460//453
f 548//454 460//454 236//454
f 298//455 713//455 548//455
f 543//185 545//185 297//185
f 282//456 714//456 543//456
f 410//456 364//456 714//456
f 371//457 544//457 243//457
f 506//458 371//458 147//458
f 282//459 715//459 506//459
f 716//460 115//460 467//460
f 544//461 467//461 243//461
f 297//462 716//462 544//462
f 411//464 371//464 717//464
f 510//173 418//173 726//173
f 529//521 322//521 741//521
f 541//529 467//529 744//529
f 542//122 347//122 219//122
f 297//530 745//530 542//530
f 545//530 460//530 745//530
f 546//531 346//531 218//531
f 298//532 746//532 546//532
f 549//533 453//533 746//533
f 550//534 345//534 217//534
f 299//535 747//535 550//535
f 553//536 476//536 747//536
f 554//119 440//119 216//119
f 300//537 748//537 554//537
f 557//537 452//537 748//537
f 558//538 343//538 215//538
f 301//539 749//539 558//539
f 561//540 469//540 749//540
f 562//541 438//541 214//541
f 302//542 750//542 562//542
f 565//543 475//543 750//543
f 566//544 341//544 213//544
f 303//545 751//545 566//545
f 569//546 462//546 751//546
f 570//547 436//547 212//547
f 304//548 752//548 570//548
f 573//549 468//549 752//549
f 574//550 339//550 211//550
f 305//551 753//551 574//551
f 577//552 455//552 753//552
f 578//553 434//553 210//553
f 306//554 754//554 578//554
f 581//555 461//555 754//555
f 582//556 337//556 209//556
f 307//557 755//557 582//557
f 585//558 478//558 755//558
f 586//559 432//559 208//559
f 308//560 756//560 586//560
f 589//561 454//561 756//561
f 590//562 335//562 207//562
f 309//219 757//219 590//219
f 593//563 471//563 757//563
f 594//564 430//564 206//564
f 310//565 758//565 594//565
f 597//566 477//566 758//566
f 602//567 428//567 204//567
f 312//568 760//568 602//568
f 605//569 470//569 760//569
f 610//573 426//573 202//573
f 314//234 762//234 610//234
f 613//574 463//574 762//574
f 8//625 113//625 323//625
f 8//625 323//625 195//625
f 106//626 6//626 67//626
f 67//626 8//626 195//626
f 419//66 106//66 67//66
f 46//627 127//627 420//627
f 46//67 420//67 196//67
f 120//628 44//628 86//628
f 86//628 46//628 196//628
f 324//67 120//67 86//67
f 10//68 121//68 325//68
f 197//629 421//629 113//629
f 10//68 325//68 197//68
f 113//630 8//630 68//630
f 68//631 10//631 197//631
f 48//69 103//69 422//69
f 48//69 422//69 198//69
f 127//632 46//632 87//632
f 87//632 48//632 198//632
f 326//69 127//69 87//69
f 12//70 128//70 327//70
f 12//70 327//70 199//70
f 121//633 10//633 69//633
f 69//634 12//634 199//634
f 423//70 121//70 69//70
f 50//71 110//71 424//71
f 50//71 424//71 200//71
f 103//635 48//635 88//635
f 88//635 50//635 200//635
f 328//71 103//71 88//71
f 14//636 104//636 329//636
f 329//637 201//637 425//637
f 425//72 128//72 12//72
f 70//638 14//638 329//638
f 425//638 12//638 70//638
f 52//73 118//73 330//73
f 52//73 330//73 202//73
f 110//639 50//639 89//639
f 89//639 52//639 202//639
f 426//73 110//73 89//73
f 16//74 111//74 331//74
f 16//74 331//74 203//74
f 104//640 14//640 71//640
f 71//640 16//640 203//640
f 427//74 104//74 71//74
f 54//75 125//75 332//75
f 54//75 332//75 204//75
f 118//641 52//641 90//641
f 90//641 54//641 204//641
f 428//75 118//75 90//75
f 18//76 119//76 333//76
f 18//76 333//76 205//76
f 111//642 16//642 72//642
f 72//642 18//642 205//642
f 429//76 111//76 72//76
f 56//77 101//77 334//77
f 56//77 334//77 206//77
f 125//643 54//643 91//643
f 91//643 56//643 206//643
f 430//77 125//77 91//77
f 20//78 126//78 431//78
f 20//78 431//78 207//78
f 119//644 18//644 73//644
f 73//644 20//644 207//644
f 335//78 119//78 73//78
f 58//645 108//645 336//645
f 58//645 336//645 208//645
f 101//646 56//646 92//646
f 92//646 58//646 208//646
f 432//79 101//79 92//79
f 22//80 102//80 433//80
f 22//80 433//80 209//80
f 126//647 20//647 74//647
f 74//647 22//647 209//647
f 337//80 126//80 74//80
f 60//648 116//648 338//648
f 60//648 338//648 210//648
f 108//649 58//649 93//649
f 93//649 60//649 210//649
f 434//81 108//81 93//81
f 24//82 109//82 435//82
f 435//637 211//637 339//637
f 339//650 102//650 22//650
f 75//651 24//651 435//651
f 339//651 22//651 75//651
f 62//83 123//83 340//83
f 62//83 340//83 212//83
f 116//652 60//652 94//652
f 94//653 62//653 212//653
f 436//83 116//83 94//83
f 26//654 117//654 437//654
f 26//654 437//654 213//654
f 109//655 24//655 76//655
f 76//655 26//655 213//655
f 341//84 109//84 76//84
f 64//85 99//85 342//85
f 64//85 342//85 214//85
f 123//656 62//656 95//656
f 95//656 64//656 214//656
f 438//85 123//85 95//85
f 28//657 124//657 439//657
f 28//657 439//657 215//657
f 117//658 26//658 77//658
f 77//658 28//658 215//658
f 343//86 117//86 77//86
f 2//87 114//87 344//87
f 216//659 440//659 99//659
f 2//87 344//87 216//87
f 99//660 64//660 96//660
f 96//661 2//661 216//661
f 30//88 100//88 441//88
f 30//88 441//88 217//88
f 124//662 28//662 78//662
f 78//663 30//663 217//663
f 345//88 124//88 78//88
f 32//89 107//89 442//89
f 32//89 442//89 218//89
f 100//664 30//664 79//664
f 79//664 32//664 218//664
f 346//89 100//89 79//89
f 34//90 115//90 443//90
f 34//90 443//90 219//90
f 107//665 32//665 80//665
f 80//666 34//666 219//666
f 347//90 107//90 80//90
f 36//667 122//667 444//667
f 36//667 444//667 220//667
f 115//668 34//668 81//668
f 81//668 36//668 220//668
f 348//91 115//91 81//91
f 38//92 129//92 445//92
f 38//92 445//92 221//92
f 122//669 36//669 82//669
f 82//669 38//669 221//669
f 349//92 122//92 82//92
f 40//670 105//670 446//670
f 40//670 446//670 222//670
f 129//671 38//671 83//671
f 83//671 40//671 222//671
f 350//93 129//93 83//93
f 4//672 98//672 351//672
f 4//672 351//672 223//672
f 114//673 2//673 65//673
f 65//673 4//673 223//673
f 447//94 114//94 65//94
f 42//95 112//95 448//95
f 42//95 448//95 224//95
f 105//674 40//674 84//674
f 84//675 42//675 224//675
f 352//95 105//95 84//95
f 6//96 106//96 353//96
f 6//96 353//96 225//96
f 98//676 4//676 66//676
f 66//676 6//676 225//676
f 449//96 98//96 66//96
f 44//97 120//97 450//97
f 44//97 450//97 226//97
f 112//677 42//677 85//677
f 85//678 44//678 226//678
f 354//97 112//97 85//97
f 762//686 463//686 110//686
f 760//688 470//688 118//688
f 758//690 477//690 125//690
f 757//691 471//691 119//691
f 756//692 454//692 101//692
f 755//693 478//693 126//693
f 754//694 461//694 108//694
f 753//695 455//695 102//695
f 752//696 468//696 116//696
f 751//697 462//697 109//697
f 750//698 475//698 123//698
f 749//699 469//699 117//699
f 748//537 452//537 99//537
f 747//700 476//700 124//700
f 746//701 453//701 100//701
f 745//530 460//530 107//530
f 744//702 467//702 115//702
f 741//705 322//705 114//705
f 146//130 177//130 170//130
f 170//130 139//130 482//130
f 170//130 482//130 258//130
f 386//130 146//130 170//130
f 159//131 191//131 183//131
f 183//131 152//131 387//131
f 183//131 387//131 259//131
f 483//131 159//131 183//131
f 153//132 184//132 177//132
f 177//132 146//132 484//132
f 177//132 484//132 260//132
f 388//132 153//132 177//132
f 136//133 167//133 191//133
f 191//133 159//133 389//133
f 191//133 389//133 261//133
f 485//133 136//133 191//133
f 160//134 192//134 184//134
f 184//134 153//134 486//134
f 184//134 486//134 262//134
f 390//134 160//134 184//134
f 143//135 174//135 167//135
f 167//135 136//135 391//135
f 167//135 391//135 263//135
f 487//135 143//135 167//135
f 137//136 168//136 192//136
f 192//136 160//136 488//136
f 192//136 488//136 264//136
f 392//136 137//136 192//136
f 150//137 181//137 174//137
f 174//137 143//137 489//137
f 174//137 489//137 265//137
f 393//137 150//137 174//137
f 144//138 175//138 168//138
f 168//138 137//138 490//138
f 168//138 490//138 266//138
f 394//138 144//138 168//138
f 157//139 189//139 181//139
f 181//139 150//139 491//139
f 181//139 491//139 267//139
f 395//139 157//139 181//139
f 151//140 182//140 175//140
f 175//140 144//140 492//140
f 175//140 492//140 268//140
f 396//140 151//140 175//140
f 134//141 165//141 189//141
f 189//141 157//141 493//141
f 189//141 493//141 269//141
f 397//141 134//141 189//141
f 158//142 190//142 182//142
f 182//142 151//142 398//142
f 182//142 398//142 270//142
f 494//142 158//142 182//142
f 141//143 172//143 165//143
f 165//143 134//143 495//143
f 165//143 495//143 271//143
f 399//143 141//143 165//143
f 135//144 166//144 190//144
f 190//144 158//144 400//144
f 190//144 400//144 272//144
f 496//144 135//144 190//144
f 148//145 179//145 172//145
f 172//145 141//145 497//145
f 273//659 401//659 148//659
f 172//145 497//145 273//145
f 142//146 173//146 166//146
f 166//146 135//146 402//146
f 166//146 402//146 274//146
f 498//146 142//146 166//146
f 155//147 186//147 179//147
f 179//147 148//147 499//147
f 179//147 499//147 275//147
f 403//147 155//147 179//147
f 149//148 180//148 173//148
f 173//148 142//148 404//148
f 173//148 404//148 276//148
f 500//148 149//148 173//148
f 132//149 163//149 186//149
f 186//149 155//149 501//149
f 186//149 501//149 277//149
f 405//149 132//149 186//149
f 156//150 187//150 180//150
f 180//150 149//150 406//150
f 180//150 406//150 278//150
f 502//150 156//150 180//150
f 131//151 188//151 163//151
f 163//151 132//151 503//151
f 279//709 407//709 131//709
f 163//151 503//151 279//151
f 133//152 164//152 187//152
f 187//152 156//152 408//152
f 187//152 408//152 280//152
f 504//152 133//152 187//152
f 140//153 171//153 164//153
f 164//153 133//153 409//153
f 164//153 409//153 281//153
f 505//153 140//153 164//153
f 147//154 178//154 171//154
f 171//154 140//154 410//154
f 171//154 410//154 282//154
f 506//154 147//154 171//154
f 154//155 185//155 178//155
f 178//155 147//155 411//155
f 178//155 411//155 283//155
f 507//155 154//155 178//155
f 161//156 193//156 185//156
f 185//156 154//156 412//156
f 185//156 412//156 284//156
f 508//156 161//156 185//156
f 138//157 169//157 193//157
f 193//157 161//157 413//157
f 193//157 413//157 285//157
f 509//157 138//157 193//157
f 130//158 162//158 188//158
f 188//158 131//158 510//158
f 188//158 510//158 286//158
f 414//158 130//158 188//158
f 145//159 176//159 169//159
f 169//159 138//159 415//159
f 169//159 415//159 287//159
f 511//159 145//159 169//159
f 139//160 170//160 162//160
f 162//160 130//160 512//160
f 162//160 512//160 288//160
f 416//160 139//160 162//160
f 152//161 183//161 176//161
f 176//161 145//161 417//161
f 176//161 417//161 289//161
f 513//161 152//161 176//161
f 418//715 194//715 529//715
f 371//719 243//719 541//719
f 542//122 219//122 443//122
f 543//185 297//185 544//185
f 714//456 364//456 236//456
f 546//531 218//531 442//531
f 547//448 298//448 548//448
f 711//720 357//720 229//720
f 710//535 550//535 217//535
f 709//440 551//440 299//440
f 708//721 380//721 252//721
f 554//119 216//119 344//119
f 555//194 300//194 556//194
f 705//432 356//432 228//432
f 704//539 558//539 215//539
f 703//424 559//424 301//424
f 702//722 373//722 245//722
f 562//541 214//541 342//541
f 563//415 302//415 564//415
f 699//723 379//723 251//723
f 698//545 566//545 213//545
f 697//407 567//407 303//407
f 696//724 366//724 238//724
f 695//548 570//548 212//548
f 694//398 571//398 304//398
f 693//725 372//725 244//725
f 692//551 574//551 211//551
f 691//389 575//389 305//389
f 690//726 359//726 231//726
f 689//554 578//554 210//554
f 688//380 579//380 306//380
f 687//727 365//727 237//727
f 582//556 209//556 433//556
f 583//370 307//370 584//370
f 684//728 382//728 254//728
f 683//560 586//560 208//560
f 682//362 587//362 308//362
f 681//729 358//729 230//729
f 590//562 207//562 431//562
f 591//355 309//355 592//355
f 375//730 247//730 593//730
f 677//565 594//565 206//565
f 676//347 595//347 310//347
f 675//731 381//731 253//731
f 602//567 204//567 332//567
f 603//332 312//332 604//332
f 669//733 374//733 246//733
f 610//573 202//573 330//573
f 611//317 314//317 612//317
f 367//735 239//735 613//735
f 367//762 658//762 620//762
f 487//762 658//762 367//762
f 659//763 424//763 110//763
f 620//764 659//764 463//764
f 611//235 663//235 613//235
f 265//320 489//320 663//320
f 489//767 143//767 367//767
f 664//317 612//317 246//317
f 393//235 664//235 374//235
f 265//235 611//235 664//235
f 665//573 330//573 118//573
f 612//234 665//234 470//234
f 314//234 610//234 665//234
f 603//334 669//334 605//334
f 267//771 491//771 669//771
f 491//772 150//772 374//772
f 670//340 604//340 253//340
f 395//229 670//229 381//229
f 267//333 603//333 670//333
f 671//773 332//773 125//773
f 604//228 671//228 477//228
f 312//568 602//568 671//568
f 375//775 673//775 600//775
f 396//775 673//775 375//775
f 674//776 333//776 119//776
f 600//777 674//777 471//777
f 595//348 675//348 597//348
f 269//778 493//778 675//778
f 493//779 157//779 381//779
f 676//223 596//223 230//223
f 397//351 676//351 358//351
f 397//780 269//780 595//780
f 677//222 334//222 101//222
f 596//354 677//354 454//354
f 596//346 310//346 594//346
f 591//220 678//220 593//220
f 270//358 398//358 678//358
f 398//781 151//781 375//781
f 679//355 592//355 254//355
f 494//220 679//220 382//220
f 270//220 591//220 679//220
f 680//562 431//562 126//562
f 592//219 680//219 478//219
f 309//219 590//219 680//219
f 587//782 681//782 589//782
f 271//783 495//783 681//783
f 495//784 134//784 358//784
f 682//217 588//217 237//217
f 399//366 682//366 365//366
f 399//785 271//785 587//785
f 683//216 336//216 108//216
f 588//369 683//369 461//369
f 588//361 308//361 586//361
f 583//372 684//372 585//372
f 272//786 400//786 684//786
f 400//787 158//787 382//787
f 685//378 584//378 231//378
f 496//214 685//214 359//214
f 272//371 583//371 685//371
f 686//788 433//788 102//788
f 584//213 686//213 455//213
f 307//557 582//557 686//557
f 579//381 687//381 581//381
f 273//789 497//789 687//789
f 497//790 141//790 365//790
f 688//211 580//211 244//211
f 401//791 688//791 372//791
f 401//792 273//792 579//792
f 689//210 338//210 116//210
f 580//387 689//387 468//387
f 580//379 306//379 578//379
f 575//390 690//390 577//390
f 274//793 402//793 690//793
f 402//794 135//794 359//794
f 691//208 576//208 238//208
f 498//393 691//393 366//393
f 498//795 274//795 575//795
f 692//207 435//207 109//207
f 576//396 692//396 462//396
f 576//388 305//388 574//388
f 571//399 693//399 573//399
f 275//796 499//796 693//796
f 499//797 148//797 372//797
f 694//205 572//205 251//205
f 403//402 694//402 379//402
f 403//798 275//798 571//798
f 695//204 340//204 123//204
f 572//405 695//405 475//405
f 572//397 304//397 570//397
f 567//799 696//799 569//799
f 276//800 404//800 696//800
f 404//801 142//801 366//801
f 697//202 568//202 245//202
f 500//411 697//411 373//411
f 500//802 276//802 567//802
f 698//201 437//201 117//201
f 568//414 698//414 469//414
f 568//406 303//406 566//406
f 563//416 699//416 565//416
f 277//803 501//803 699//803
f 501//804 155//804 379//804
f 700//422 564//422 228//422
f 405//199 700//199 356//199
f 277//199 563//199 700//199
f 701//805 342//805 99//805
f 564//198 701//198 452//198
f 302//542 562//542 701//542
f 559//425 702//425 561//425
f 278//806 406//806 702//806
f 406//807 149//807 373//807
f 703//196 560//196 252//196
f 502//808 703//808 380//808
f 502//809 278//809 559//809
f 704//195 439//195 124//195
f 560//431 704//431 476//431
f 560//423 301//423 558//423
f 555//432 705//432 557//432
f 279//810 503//810 705//810
f 503//810 132//810 356//810
f 418//811 706//811 556//811
f 407//811 706//811 418//811
f 279//432 555//432 706//432
f 707//812 344//812 114//812
f 556//813 707//813 322//813
f 300//537 554//537 707//537
f 551//441 708//441 553//441
f 280//814 408//814 708//814
f 408//815 156//815 380//815
f 709//190 552//190 229//190
f 504//444 709//444 357//444
f 504//816 280//816 551//816
f 710//189 441//189 100//189
f 552//447 710//447 453//447
f 552//439 299//439 550//439
f 547//449 711//449 549//449
f 281//817 409//817 711//817
f 409//818 133//818 357//818
f 712//455 548//455 236//455
f 505//187 712//187 364//187
f 281//187 547//187 712//187
f 713//819 442//819 107//819
f 548//186 713//186 460//186
f 298//532 546//532 713//532
f 543//456 714//456 545//456
f 282//820 410//820 714//820
f 410//820 140//820 364//820
f 371//821 715//821 544//821
f 506//822 715//822 371//822
f 282//456 543//456 715//456
f 716//823 443//823 115//823
f 544//824 716//824 467//824
f 297//530 542//530 716//530
f 411//827 147//827 371//827
f 510//835 131//835 418//835
f 529//850 194//850 322//850
f 541//855 243//855 467//855
f 542//530 745//530 347//530
f 297//185 545//185 745//185
f 545//185 236//185 460//185
f 546//533 746//533 346//533
f 298//188 549//188 746//188
f 549//856 229//856 453//856
f 550//536 747//536 345//536
f 299//191 553//191 747//191
f 553//857 252//857 476//857
f 554//537 748//537 440//537
f 300//194 557//194 748//194
f 557//194 228//194 452//194
f 558//540 749//540 343//540
f 301//197 561//197 749//197
f 561//858 245//858 469//858
f 562//543 750//543 438//543
f 302//200 565//200 750//200
f 565//859 251//859 475//859
f 566//546 751//546 341//546
f 303//203 569//203 751//203
f 569//860 238//860 462//860
f 570//549 752//549 436//549
f 304//206 573//206 752//206
f 573//861 244//861 468//861
f 574//552 753//552 339//552
f 305//209 577//209 753//209
f 577//862 231//862 455//862
f 578//555 754//555 434//555
f 306//212 581//212 754//212
f 581//863 237//863 461//863
f 582//558 755//558 337//558
f 307//215 585//215 755//215
f 585//864 254//864 478//864
f 586//561 756//561 432//561
f 308//218 589//218 756//218
f 589//865 230//865 454//865
f 590//219 757//219 335//219
f 309//355 593//355 757//355
f 593//866 247//866 471//866
f 594//566 758//566 430//566
f 310//224 597//224 758//224
f 597//867 253//867 477//867
f 602//569 760//569 428//569
f 312//230 605//230 760//230
f 605//869 246//869 470//869
f 610//234 762//234 426//234
f 314//317 613//317 762//317
f 613//871 239//871 463//871
usemtl マテリアル.003
f 769//98 106//98 419//98
f 768//99 120//99 324//99
f 767//100 113//100 421//100
f 766//101 127//101 326//101
f 765//102 121//102 423//102
f 764//103 103//103 328//103
f 763//104 128//104 425//104
f 761//106 104//106 427//106
f 759//108 111//108 429//108
f 743//124 122//124 349//124
f 742//125 129//125 350//125
f 740//127 105//127 352//127
f 739//128 98//128 449//128
f 738//129 112//129 354//129
f 514//162 450//162 737//162
f 515//163 516//163 736//163
f 735//164 241//164 517//164
f 518//165 353//165 734//165
f 519//166 520//166 733//166
f 732//167 227//167 521//167
f 522//168 448//168 731//168
f 523//169 524//169 730//169
f 729//170 234//170 525//170
f 526//171 351//171 728//171
f 527//172 528//172 727//172
f 530//174 446//174 725//174
f 531//175 532//175 724//175
f 723//176 257//176 533//176
f 534//177 445//177 722//177
f 535//178 536//178 721//178
f 720//179 250//179 537//179
f 538//180 444//180 719//180
f 539//181 540//181 718//181
f 598//225 333//225 674//225
f 599//226 600//226 673//226
f 672//227 240//227 601//227
f 606//231 331//231 668//231
f 607//232 608//232 667//232
f 666//233 233//233 609//233
f 614//237 329//237 662//237
f 615//238 616//238 661//238
f 660//239 256//239 617//239
f 618//240 424//240 659//240
f 619//241 620//241 658//241
f 657//242 232//242 621//242
f 622//243 327//243 656//243
f 623//244 624//244 655//244
f 654//245 249//245 625//245
f 626//246 422//246 653//246
f 627//247 628//247 652//247
f 651//248 255//248 629//248
f 630//249 325//249 650//249
f 631//250 632//250 649//250
f 648//251 242//251 633//251
f 634//252 420//252 647//252
f 635//253 636//253 646//253
f 645//254 248//254 637//254
f 638//255 323//255 644//255
f 639//256 640//256 643//256
f 642//257 235//257 641//257
f 642//258 321//258 639//258
f 482//259 639//259 258//259
f 482//260 363//260 642//260
f 643//261 242//261 370//261
f 386//262 370//262 146//262
f 258//263 643//263 386//263
f 644//264 113//264 466//264
f 640//265 466//265 242//265
f 321//266 644//266 640//266
f 645//267 320//267 635//267
f 387//268 635//268 259//268
f 387//269 376//269 645//269
f 646//270 255//270 383//270
f 483//271 383//271 159//271
f 259//272 646//272 483//272
f 647//273 127//273 479//273
f 636//274 479//274 255//274
f 320//275 647//275 636//275
f 648//276 319//276 631//276
f 484//277 631//277 260//277
f 484//278 370//278 648//278
f 649//279 249//279 377//279
f 388//280 377//280 153//280
f 260//281 649//281 388//281
f 650//282 121//282 473//282
f 632//283 473//283 249//283
f 319//284 650//284 632//284
f 627//285 629//285 318//285
f 261//286 651//286 627//286
f 389//287 383//287 651//287
f 652//288 232//288 360//288
f 485//289 360//289 136//289
f 261//290 652//290 485//290
f 653//291 103//291 456//291
f 628//292 456//292 232//292
f 318//293 653//293 628//293
f 654//294 317//294 623//294
f 486//295 623//295 262//295
f 486//296 377//296 654//296
f 655//297 256//297 384//297
f 390//298 384//298 160//298
f 262//299 655//299 390//299
f 656//300 128//300 480//300
f 624//301 480//301 256//301
f 317//302 656//302 624//302
f 619//242 621//242 316//242
f 263//241 657//241 619//241
f 391//241 360//241 657//241
f 263//305 658//305 487//305
f 316//242 659//242 620//242
f 660//308 315//308 615//308
f 488//309 615//309 264//309
f 488//310 384//310 660//310
f 661//311 233//311 361//311
f 392//312 361//312 137//312
f 264//313 661//313 392//313
f 662//314 104//314 457//314
f 616//315 457//315 233//315
f 315//316 662//316 616//316
f 607//323 609//323 313//323
f 266//324 666//324 607//324
f 490//325 361//325 666//325
f 667//326 240//326 368//326
f 394//327 368//327 144//327
f 266//328 667//328 394//328
f 668//329 111//329 464//329
f 608//330 464//330 240//330
f 313//331 668//331 608//331
f 599//227 601//227 311//227
f 268//226 672//226 599//226
f 492//226 368//226 672//226
f 268//343 673//343 396//343
f 311//227 674//227 600//227
f 539//463 541//463 296//463
f 283//181 717//181 539//181
f 718//181 250//181 378//181
f 507//465 378//465 154//465
f 283//465 718//465 507//465
f 719//180 122//180 474//180
f 540//463 474//463 250//463
f 296//463 719//463 540//463
f 535//466 537//466 295//466
f 284//467 720//467 535//467
f 412//467 378//467 720//467
f 721//468 257//468 385//468
f 508//469 385//469 161//469
f 284//470 721//470 508//470
f 722//471 129//471 481//471
f 536//472 481//472 257//472
f 295//473 722//473 536//473
f 723//474 294//474 531//474
f 413//475 531//475 285//475
f 413//476 385//476 723//476
f 724//477 234//477 362//477
f 509//478 362//478 138//478
f 285//479 724//479 509//479
f 725//480 105//480 458//480
f 532//481 458//481 234//481
f 294//482 725//482 532//482
f 527//483 529//483 293//483
f 286//172 726//172 527//172
f 727//172 227//172 355//172
f 414//484 355//484 130//484
f 286//484 727//484 414//484
f 728//171 98//171 451//171
f 528//483 451//483 227//483
f 293//483 728//483 528//483
f 729//485 292//485 523//485
f 415//486 523//486 287//486
f 415//487 362//487 729//487
f 730//488 241//488 369//488
f 511//489 369//489 145//489
f 287//490 730//490 511//490
f 731//491 112//491 465//491
f 524//492 465//492 241//492
f 292//493 731//493 524//493
f 519//494 521//494 291//494
f 288//495 732//495 519//495
f 512//495 355//495 732//495
f 733//496 235//496 363//496
f 416//497 363//497 139//497
f 288//498 733//498 416//498
f 734//499 106//499 459//499
f 520//500 459//500 235//500
f 291//501 734//501 520//501
f 735//502 290//502 515//502
f 417//503 515//503 289//503
f 417//504 369//504 735//504
f 736//505 248//505 376//505
f 513//506 376//506 152//506
f 289//507 736//507 513//507
f 737//508 120//508 472//508
f 516//509 472//509 248//509
f 290//510 737//510 516//510
f 738//511 226//511 514//511
f 517//512 514//512 290//512
f 517//513 465//513 738//513
f 518//514 449//514 225//514
f 291//515 739//515 518//515
f 521//516 451//516 739//516
f 740//517 224//517 522//517
f 525//518 522//518 292//518
f 525//519 458//519 740//519
f 526//520 447//520 223//520
f 293//171 741//171 526//171
f 742//522 222//522 530//522
f 533//523 530//523 294//523
f 533//524 481//524 742//524
f 534//525 349//525 221//525
f 295//526 743//526 534//526
f 537//527 474//527 743//527
f 538//528 348//528 220//528
f 296//180 744//180 538//180
f 598//108 429//108 205//108
f 311//225 759//225 598//225
f 601//225 464//225 759//225
f 606//570 427//570 203//570
f 313//571 761//571 606//571
f 609//572 457//572 761//572
f 763//575 201//575 614//575
f 617//576 614//576 315//576
f 617//577 480//577 763//577
f 618//103 328//103 200//103
f 316//240 764//240 618//240
f 621//240 456//240 764//240
f 765//578 199//578 622//578
f 625//579 622//579 317//579
f 625//580 473//580 765//580
f 626//581 326//581 198//581
f 318//582 766//582 626//582
f 629//583 479//583 766//583
f 767//584 197//584 630//584
f 633//585 630//585 319//585
f 633//586 466//586 767//586
f 768//587 196//587 634//587
f 637//588 634//588 320//588
f 637//589 472//589 768//589
f 769//590 195//590 638//590
f 641//591 638//591 321//591
f 641//592 459//592 769//592
f 769//679 459//679 106//679
f 768//680 472//680 120//680
f 767//681 466//681 113//681
f 766//682 479//682 127//682
f 765//683 473//683 121//683
f 764//684 456//684 103//684
f 763//685 480//685 128//685
f 761//687 457//687 104//687
f 759//689 464//689 111//689
f 743//703 474//703 122//703
f 742//704 481//704 129//704
f 740//706 458//706 105//706
f 739//707 451//707 98//707
f 738//708 465//708 112//708
f 514//710 226//710 450//710
f 515//512 290//512 516//512
f 735//711 369//711 241//711
f 518//514 225//514 353//514
f 519//494 291//494 520//494
f 732//712 355//712 227//712
f 522//713 224//713 448//713
f 523//518 292//518 524//518
f 729//714 362//714 234//714
f 526//520 223//520 351//520
f 527//483 293//483 528//483
f 530//716 222//716 446//716
f 531//523 294//523 532//523
f 723//717 385//717 257//717
f 534//525 221//525 445//525
f 535//466 295//466 536//466
f 720//718 378//718 250//718
f 538//528 220//528 444//528
f 539//463 296//463 540//463
f 598//108 205//108 333//108
f 599//227 311//227 600//227
f 672//732 368//732 240//732
f 606//570 203//570 331//570
f 607//323 313//323 608//323
f 666//734 361//734 233//734
f 614//736 201//736 329//736
f 615//576 315//576 616//576
f 660//737 384//737 256//737
f 618//103 200//103 424//103
f 619//242 316//242 620//242
f 657//738 360//738 232//738
f 622//739 199//739 327//739
f 623//579 317//579 624//579
f 654//740 377//740 249//740
f 626//581 198//581 422//581
f 627//285 318//285 628//285
f 651//741 383//741 255//741
f 630//742 197//742 325//742
f 631//585 319//585 632//585
f 648//743 370//743 242//743
f 634//744 196//744 420//744
f 635//588 320//588 636//588
f 645//745 376//745 248//745
f 638//746 195//746 323//746
f 639//591 321//591 640//591
f 642//747 363//747 235//747
f 642//257 641//257 321//257
f 482//260 642//260 639//260
f 482//748 139//748 363//748
f 643//266 640//266 242//266
f 386//256 643//256 370//256
f 258//258 639//258 643//258
f 644//749 323//749 113//749
f 640//255 644//255 466//255
f 321//590 638//590 644//590
f 645//254 637//254 320//254
f 387//269 645//269 635//269
f 387//750 152//750 376//750
f 646//275 636//275 255//275
f 483//253 646//253 383//253
f 259//267 635//267 646//267
f 647//751 420//751 127//751
f 636//252 647//252 479//252
f 320//587 634//587 647//587
f 648//251 633//251 319//251
f 484//752 648//752 631//752
f 484//753 146//753 370//753
f 649//284 632//284 249//284
f 388//250 649//250 377//250
f 260//276 631//276 649//276
f 650//754 325//754 121//754
f 632//249 650//249 473//249
f 319//584 630//584 650//584
f 627//287 651//287 629//287
f 261//755 389//755 651//755
f 389//756 159//756 383//756
f 652//293 628//293 232//293
f 485//247 652//247 360//247
f 261//286 627//286 652//286
f 653//757 422//757 103//757
f 628//246 653//246 456//246
f 318//582 626//582 653//582
f 654//245 625//245 317//245
f 486//296 654//296 623//296
f 486//758 153//758 377//758
f 655//302 624//302 256//302
f 390//759 655//759 384//759
f 262//294 623//294 655//294
f 656//760 327//760 128//760
f 624//243 656//243 480//243
f 317//578 622//578 656//578
f 619//241 657//241 621//241
f 263//305 391//305 657//305
f 391//761 136//761 360//761
f 263//241 619//241 658//241
f 316//240 618//240 659//240
f 660//239 617//239 315//239
f 488//310 660//310 615//310
f 488//765 160//765 384//765
f 661//316 616//316 233//316
f 392//238 661//238 361//238
f 264//308 615//308 661//308
f 662//766 329//766 104//766
f 616//237 662//237 457//237
f 315//575 614//575 662//575
f 607//325 666//325 609//325
f 266//768 490//768 666//768
f 490//769 137//769 361//769
f 667//331 608//331 240//331
f 394//232 667//232 368//232
f 266//324 607//324 667//324
f 668//770 331//770 111//770
f 608//231 668//231 464//231
f 313//571 606//571 668//571
f 599//226 672//226 601//226
f 268//343 492//343 672//343
f 492//774 144//774 368//774
f 268//226 599//226 673//226
f 311//225 598//225 674//225
f 539//825 717//825 541//825
f 283//826 411//826 717//826
f 718//463 540//463 250//463
f 507//181 718//181 378//181
f 283//181 539//181 718//181
f 719//528 444//528 122//528
f 540//180 719//180 474//180
f 296//180 538//180 719//180
f 535//467 720//467 537//467
f 284//828 412//828 720//828
f 412//829 154//829 378//829
f 721//473 536//473 257//473
f 508//178 721//178 385//178
f 284//467 535//467 721//467
f 722//830 445//830 129//830
f 536//177 722//177 481//177
f 295//526 534//526 722//526
f 723//176 533//176 294//176
f 413//476 723//476 531//476
f 413//831 161//831 385//831
f 724//482 532//482 234//482
f 509//175 724//175 362//175
f 285//474 531//474 724//474
f 725//832 446//832 105//832
f 532//174 725//174 458//174
f 294//522 530//522 725//522
f 527//833 726//833 529//833
f 286//834 510//834 726//834
f 727//483 528//483 227//483
f 414//172 727//172 355//172
f 286//172 527//172 727//172
f 728//520 351//520 98//520
f 528//171 728//171 451//171
f 293//171 526//171 728//171
f 729//170 525//170 292//170
f 415//836 729//836 523//836
f 415//837 138//837 362//837
f 730//493 524//493 241//493
f 511//169 730//169 369//169
f 287//485 523//485 730//485
f 731//838 448//838 112//838
f 524//168 731//168 465//168
f 292//517 522//517 731//517
f 519//495 732//495 521//495
f 288//839 512//839 732//839
f 512//840 130//840 355//840
f 733//501 520//501 235//501
f 416//166 733//166 363//166
f 288//495 519//495 733//495
f 734//841 353//841 106//841
f 520//165 734//165 459//165
f 291//515 518//515 734//515
f 735//164 517//164 290//164
f 417//504 735//504 515//504
f 417//842 145//842 369//842
f 736//510 516//510 248//510
f 513//843 736//843 376//843
f 289//502 515//502 736//502
f 737//844 450//844 120//844
f 516//162 737//162 472//162
f 290//511 514//511 737//511
f 738//129 354//129 226//129
f 517//513 738//513 514//513
f 517//845 241//845 465//845
f 518//516 739//516 449//516
f 291//167 521//167 739//167
f 521//846 227//846 451//846
f 740//127 352//127 224//127
f 525//519 740//519 522//519
f 525//847 234//847 458//847
f 526//848 741//848 447//848
f 293//849 529//849 741//849
f 742//125 350//125 222//125
f 533//524 742//524 530//524
f 533//851 257//851 481//851
f 534//527 743//527 349//527
f 295//179 537//179 743//179
f 537//852 250//852 474//852
f 538//853 744//853 348//853
f 296//854 541//854 744//854
f 598//225 759//225 429//225
f 311//227 601//227 759//227
f 601//868 240//868 464//868
f 606//572 761//572 427//572
f 313//233 609//233 761//233
f 609//870 233//870 457//870
f 763//104 425//104 201//104
f 617//577 763//577 614//577
f 617//872 256//872 480//872
f 618//240 764//240 328//240
f 316//242 621//242 764//242
f 621//873 232//873 456//873
f 765//102 423//102 199//102
f 625//580 765//580 622//580
f 625//874 249//874 473//874
f 626//583 766//583 326//583
f 318//248 629//248 766//248
f 629//875 255//875 479//875
f 767//100 421//100 197//100
f 633//586 767//586 630//586
f 633//876 242//876 466//876
f 768//99 324//99 196//99
f 637//589 768//589 634//589
f 637//877 248//877 472//877
f 769//98 419//98 195//98
f 641//592 769//592 638//592
f 641//878 235//878 459//878
usemtl マテリアル.004
f 188//1 3//1 1//1
f 162//2 5//2 3//2
f 170//3 7//3 5//3
f 177//4 9//4 7//4
f 184//5 11//5 9//5
f 192//6 13//6 11//6
f 168//7 15//7 13//7
f 175//8 17//8 15//8
f 17//9 190//9 19//9
f 19//10 166//10 21//10
f 21//11 173//11 23//11
f 23//12 180//12 25//12
f 25//13 187//13 27//13
f 27//14 164//14 29//14
f 29//15 171//15 31//15
f 31//16 178//16 33//16
f 178//17 35//17 33//17
f 185//18 37//18 35//18
f 193//19 39//19 37//19
f 169//20 41//20 39//20
f 176//21 43//21 41//21
f 183//22 45//22 43//22
f 191//23 47//23 45//23
f 167//24 49//24 47//24
f 49//25 181//25 51//25
f 51//26 189//26 53//26
f 53//27 165//27 55//27
f 55//28 172//28 57//28
f 57//29 179//29 59//29
f 59//30 186//30 61//30
f 61//31 163//31 63//31
f 63//32 188//32 1//32
f 31//33 47//33 63//33
f 188//593 162//593 3//593
f 162//594 170//594 5//594
f 170//595 177//595 7//595
f 177//596 184//596 9//596
f 184//597 192//597 11//597
f 192//598 168//598 13//598
f 168//599 175//599 15//599
f 175//600 182//600 17//600
f 17//601 182//601 190//601
f 19//602 190//602 166//602
f 21//603 166//603 173//603
f 23//604 173//604 180//604
f 25//605 180//605 187//605
f 27//606 187//606 164//606
f 29//607 164//607 171//607
f 31//608 171//608 178//608
f 178//609 185//609 35//609
f 185//610 193//610 37//610
f 193//611 169//611 39//611
f 169//612 176//612 41//612
f 176//613 183//613 43//613
f 183//614 191//614 45//614
f 191//615 167//615 47//615
f 167//616 174//616 49//616
f 49//617 174//617 181//617
f 51//618 181//618 189//618
f 53//619 189//619 165//619
f 55//620 165//620 172//620
f 57//621 172//621 179//621
f 59//622 179//622 186//622
f 61//623 186//623 163//623
f 63//624 163//624 188//624
f 63//33 1//33 3//33
f 3//33 5//33 7//33
f 7//33 9//33 11//33
f 11//33 13//33 15//33
f 15//33 17//33 19//33
f 19//33 21//33 23//33
f 23//33 25//33 27//33
f 27//33 29//33 31//33
f 31//33 33//33 35//33
f 35//33 37//33 39//33
f 39//33 41//33 43//33
f 43//33 45//33 47//33
f 47//33 49//33 51//33
f 51//33 53//33 55//33
f 55//33 57//33 59//33
f 59//33 61//33 63//33
f 63//33 3//33 7//33
f 7//33 11//33 15//33
f 15//33 19//33 23//33
f 23//33 27//33 31//33
f 31//33 35//33 39//33
f 39//33 43//33 47//33
f 47//33 51//33 55//33
f 55//33 59//33 63//33
f 63//33 7//33 15//33
f 15//33 23//33 31//33
f 31//33 39//33 47//33
f 47//33 55//33 63//33
f 63//33 15//33 31//33
